<svg xmlns="http://www.w3.org/2000/svg"><defs><font horiz-adv-x="565"><font-face alphabetic="0" ascent="1005" descent="-250" panose-1="0 0 0 0 0 0 0 0 0 0"/><glyph horiz-adv-x="274" unicode="&#x20;"/><glyph d="M87 213 48 712H203L163 213H87ZM55 140H196V0H55V140Z" horiz-adv-x="251" unicode="&#x21;"/><glyph d="M81 419 49 712H194L165 419H81ZM292 419 260 712H405L376 419H292Z" horiz-adv-x="455" unicode="&#x26;&#x71;&#x75;&#x6f;&#x74;&#x3b;"/><glyph d="M297 0 437 712H524L384 0H297ZM44 173V254H540V173H44ZM82 0 222 712H309L169 0H82ZM66 466V547H562V466H66Z" horiz-adv-x="606" unicode="&#x23;"/><glyph d="M301-8Q221-8 153 13T34 76L78 169Q129 130 182 112T297 94Q366 94 403 120T440 197Q440 228 419 246T362 276 284 298 200 322 123 357 66 415 45 507Q45 569 79 617T174 692 310 720Q357 720 402 710T487 682 556 637L512 543Q419 618 311 618 248 618 211 591T174 514Q174 480 195 460T251 427 329 404 413 381 490 347 547 291 568 202Q568 139 535 92T441 19 301-8ZM259-116V13L267 72V653L259 703V828H361V703L354 653V72L361 13V-116H259Z" horiz-adv-x="600" unicode="&#x24;"/><glyph d="M190 281Q113 281 68 335T23 499Q23 608 68 662T190 716Q267 716 312 662T357 499Q357 390 313 336T190 281ZM190 362Q221 362 236 394T251 499Q251 571 236 603T190 635Q159 635 144 603T129 499Q129 426 144 394T190 362ZM173 0 586 712H706L294 0H173ZM689-4Q612-4 567 50T522 214Q522 323 567 377T689 431Q766 431 811 377T856 214Q856 105 812 51T689-4ZM689 77Q720 77 735 109T750 214Q750 286 735 318T689 350Q658 350 643 318T628 214Q628 141 643 109T689 77Z" horiz-adv-x="879" unicode="&#x25;"/><glyph d="M284-7Q211-7 156 17T71 84 40 186Q40 259 86 314T234 418Q291 447 324 470T370 514 384 560Q384 593 364 613T311 633Q274 633 252 611T229 553Q229 535 235 519T258 482 306 428L550 174Q583 141 622 117T709 76L647-9Q594 9 553 35T479 95L200 385Q170 417 151 444T124 498 115 552Q115 602 139 639T208 698 309 719Q390 719 438 677T487 565Q487 522 467 486T404 417 291 349Q246 326 217 302T175 252 162 193Q162 145 196 117T288 89Q356 89 411 132T500 252 538 429H643Q640 333 611 253T534 115 423 25 284-7Z" horiz-adv-x="687" unicode="&#x26;&#x61;&#x6d;&#x70;&#x3b;"/><glyph d="M81 419 49 712H194L165 419H81Z" horiz-adv-x="244" unicode="&#x26;&#x61;&#x70;&#x6f;&#x73;&#x3b;"/><glyph d="M226-182Q181-101 154-27T114 118 102 266Q102 342 114 414T154 560 227 712H328Q289 618 268 543T239 400 231 266Q231 199 239 132T268-11 326-182H226Z" horiz-adv-x="355" unicode="&#x28;"/><glyph d="M128-182H29Q66-88 86-12T115 132 124 266Q124 333 116 400T87 542 28 712H129Q196 595 224 487T253 266Q253 190 241 119T202-27 128-182Z" horiz-adv-x="355" unicode="&#x29;"/><glyph d="M148 346 77 398 169 511 27 550 55 634 191 582 184 728H272L265 583 402 634 429 550 288 511 380 398 308 346 228 468 148 346Z" horiz-adv-x="457" unicode="&#x2a;"/><glyph d="M546 333V245H54V333H546ZM256 535H344V42H256V535Z" horiz-adv-x="600" unicode="&#x2b;"/><glyph d="M116-133 65-93Q97-61 109-32T122 28L154 0H55V140H196V47Q196-3 178-46T116-133Z" horiz-adv-x="251" unicode="&#x2c;"/><glyph d="M69 220V319H370V220H69Z" horiz-adv-x="438" unicode="&#x2d;"/><glyph d="M55 140H196V0H55V140Z" horiz-adv-x="251" unicode="&#x2e;"/><glyph d="M80-59H-25L234 753H341L80-59Z" horiz-adv-x="315" unicode="&#x2f;"/><glyph d="M300-8Q174-8 107 85T40 356Q40 534 106 627T300 720Q427 720 493 627T560 357Q560 178 493 85T300-8ZM300 92Q369 92 401 155T433 357Q433 494 401 556T300 618Q231 618 199 556T167 357Q167 219 199 156T300 92Z" horiz-adv-x="600" unicode="&#x30;"/><glyph d="M267 59V617L332 603 123 477V592L321 712H396V59H267ZM112 0V104H552V0H112Z" horiz-adv-x="600" unicode="&#x31;"/><glyph d="M72 0V95L313 356Q355 403 375 442T395 519Q395 568 367 593T286 618Q238 618 190 600T93 544L49 638Q92 676 158 698T292 720Q362 720 414 697T494 631 522 527Q522 465 496 412T408 291L191 61 176 104H549V0H72Z" horiz-adv-x="600" unicode="&#x32;"/><glyph d="M287-7Q215-7 149 14T39 75L83 169Q130 132 179 114T282 95Q351 95 384 121T417 204Q417 258 383 284T278 310H184V412H261Q330 412 364 438T399 516Q399 566 369 592T286 618Q237 618 188 600T93 544L49 638Q92 676 158 698T293 720Q363 720 414 697T494 632 522 532Q522 468 489 424T396 361L395 371Q465 355 502 310T540 193Q540 100 472 47T287-7Z" horiz-adv-x="600" unicode="&#x33;"/><glyph d="M348 0V553H378L132 200 133 241H576V140H39V235L372 712H475V0H348Z" horiz-adv-x="600" unicode="&#x34;"/><glyph d="M300-7Q234-7 169 15T61 75L104 169Q152 133 201 114T302 95Q368 95 404 128T440 224Q440 264 424 293T377 338 306 354Q265 354 228 339T161 293H84V712H530V611H210V376L171 382Q201 418 243 437T338 456Q405 456 455 427T534 347 563 228Q563 158 531 105T440 22 300-7Z" horiz-adv-x="600" unicode="&#x35;"/><glyph d="M323-8Q189-8 116 82T42 343Q42 462 76 546T176 675 332 720Q396 720 456 699T562 638L518 544Q469 583 424 600T337 618Q256 618 213 548T169 345V291L155 316Q164 359 191 390T257 439 344 457Q408 457 457 428T534 347 562 228Q562 159 531 106T447 22 323-8ZM317 94Q372 94 405 129T439 224Q439 283 406 318T316 354Q279 354 251 338T206 292 190 224Q190 185 206 156T250 111 317 94Z" horiz-adv-x="600" unicode="&#x36;"/><glyph d="M225 0H87L431 648 434 608H52V712H548V616L225 0Z" horiz-adv-x="600" unicode="&#x37;"/><glyph d="M300-7Q221-7 161 16T68 85 34 192Q34 267 83 314T217 373L213 358Q138 373 94 418T50 529Q50 588 82 631T171 697 300 720Q372 720 428 697T517 631 550 529Q550 463 506 417T388 358L384 373Q469 361 517 313T566 192Q566 130 533 85T439 17 300-7ZM300 93Q367 93 406 120T445 201Q445 252 405 281T300 319Q236 311 196 282T155 201Q155 148 194 121T300 93ZM300 401Q355 410 391 438T427 516Q427 567 393 593T300 620Q242 620 208 594T173 516Q173 467 209 439T300 401Z" horiz-adv-x="600" unicode="&#x38;"/><glyph d="M277 720Q412 720 485 630T558 369Q558 250 524 166T424 37 268-8Q204-8 144 13T38 74L82 168Q132 129 177 112T264 94Q345 94 388 164T431 367V421L445 396Q436 353 409 322T343 273 256 255Q193 255 144 284T66 365 38 484Q38 553 69 606T154 690 277 720ZM284 618Q228 618 195 583T161 488Q161 429 194 394T284 358Q321 358 350 374T394 420 410 488Q410 527 395 556T350 601 284 618Z" horiz-adv-x="600" unicode="&#x39;"/><glyph d="M55 140H196V0H55V140ZM55 494H196V355H55V494Z" horiz-adv-x="251" unicode="&#x3a;"/><glyph d="M55 494H196V355H55V494ZM116-133 65-93Q97-61 109-32T122 28L154 0H55V140H196V47Q196-3 178-46T116-133Z" horiz-adv-x="251" unicode="&#x3b;"/><glyph d="M54 241V336L546 545V449L91 258V319L546 129V32L54 241Z" horiz-adv-x="600" unicode="&#x26;&#x6c;&#x74;&#x3b;"/><glyph d="M546 434V346H54V434H546ZM546 232V144H54V232H546Z" horiz-adv-x="600" unicode="&#x3d;"/><glyph d="M546 241 54 32V129L509 319V258L54 449V545L546 336V241Z" horiz-adv-x="600" unicode="&#x26;&#x67;&#x74;&#x3b;"/><glyph d="M88 681Q123 702 162 711T237 720Q300 720 347 700T421 642 448 555Q448 511 431 477T388 415 334 360 287 304 263 238L258 210H185V251Q185 297 198 331T232 391 272 440 306 488 320 544Q320 579 296 598T228 617Q196 617 160 607T88 575V681ZM152 0V140H293V0H152Z" horiz-adv-x="463" unicode="&#x3f;"/><glyph d="M482-158Q347-158 249-104T97 47 44 271Q44 376 77 458T169 599 309 688 483 718Q585 718 662 688T793 607 872 487 899 345Q899 273 883 220T837 133 771 82 692 65Q637 65 606 88T568 151H566Q542 114 507 90T416 65Q344 65 303 113T262 244Q262 297 277 344T321 428 388 484 474 504Q518 504 551 485T596 433H598L609 494H702L657 243Q648 189 659 164T709 139Q724 139 741 149T775 183 801 246 811 345Q811 405 791 458T730 552 628 615 483 638Q409 638 346 614T236 542 163 427 137 271Q137 165 178 87T297-34 482-78Q562-78 618-57T702 0H823Q784-70 697-114T482-158ZM437 139Q483 139 514 166T562 237 578 327Q578 378 554 403T489 429Q446 429 416 401T371 331 355 245Q355 195 378 167T437 139Z" horiz-adv-x="943" unicode="&#x40;"/><glyph d="M130 0H0L322 712H427L749 0H621L359 612H394L130 0ZM142 167 191 267H554L601 167H142Z" horiz-adv-x="749" unicode="&#x41;"/><glyph d="M77 0V712H390Q499 712 562 663T626 526Q626 466 593 423T500 363V371Q569 356 606 310T644 194Q644 103 580 52T399 0H77ZM203 101H386Q457 101 489 125T522 205Q522 259 489 285T386 311H203V101ZM203 412H368Q437 412 470 437T503 512Q503 563 470 587T368 611H203V412Z" horiz-adv-x="690" unicode="&#x42;"/><glyph d="M400-8Q294-8 216 36T97 163 55 357Q55 468 96 549T216 675 400 720Q472 720 535 699T641 636L599 542Q550 581 503 598T402 616Q299 616 243 550T186 357Q186 231 242 164T402 96Q456 96 503 113T599 170L641 76Q599 35 536 14T400-8Z" horiz-adv-x="684" unicode="&#x43;"/><glyph d="M77 0V712H339Q456 712 538 670T663 549 707 357Q707 244 664 164T538 42 339 0H77ZM206 105H331Q454 105 515 168T577 357Q577 607 331 607H206V105Z" horiz-adv-x="761" unicode="&#x44;"/><glyph d="M77 0V712H553V611H203V413H533V311H203V101H553V0H77Z" horiz-adv-x="595" unicode="&#x45;"/><glyph d="M77 0V712H543V609H204V413H523V310H204V0H77Z" horiz-adv-x="572" unicode="&#x46;"/><glyph d="M412-8Q301-8 221 35T98 160 55 357Q55 470 97 551T219 676 406 720Q481 720 546 699T656 637L612 543Q561 582 513 599T408 617Q299 617 243 551T186 357Q186 226 244 160T417 93Q461 93 503 100T584 122L554 74V292H401V385H671V43Q638 26 596 15T507-2 412-8Z" horiz-adv-x="740" unicode="&#x47;"/><glyph d="M570 0V712H696V0H570ZM77 0V712H204V0H77ZM123 310V413H644V310H123Z" horiz-adv-x="774" unicode="&#x48;"/><glyph d="M77 0V712H206V0H77Z" horiz-adv-x="284" unicode="&#x49;"/><glyph d="M-2-178V-73Q61-82 95-78T142-48 155 29V712H284V30Q284-58 257-110T168-178-2-178Z" horiz-adv-x="362" unicode="&#x4a;"/><glyph d="M537 0 176 363 524 712H680L294 330 303 401 695 0H537ZM77 0V712H206V0H77Z" horiz-adv-x="666" unicode="&#x4b;"/><glyph d="M77 0V712H206V106H538V0H77Z" horiz-adv-x="560" unicode="&#x4c;"/><glyph d="M79 0V712H182L451 99H402L669 712H772V0H657L656 527 690 519 468 0H383L156 519 192 527 193 0H79Z" horiz-adv-x="850" unicode="&#x4d;"/><glyph d="M77 0V712H173L583 179 556 165V712H677V0H580L172 531 198 547V0H77Z" horiz-adv-x="755" unicode="&#x4e;"/><glyph d="M393-8Q289-8 213 36T96 162 55 356Q55 469 96 550T213 676 393 720Q498 720 574 676T691 551 732 357Q732 244 691 162T574 36 393-8ZM393 94Q491 94 547 161T603 357Q603 485 547 551T393 618Q296 618 240 552T184 357Q184 229 240 162T393 94Z" horiz-adv-x="787" unicode="&#x4f;"/><glyph d="M77 0V712H386Q502 712 565 657T629 505Q629 410 565 354T386 298H206V0H77ZM206 397H371Q439 397 472 425T506 504Q506 556 473 583T371 611H206V397Z" horiz-adv-x="666" unicode="&#x50;"/><glyph d="M587-191Q537-156 494-107T420-4L535 41Q560-10 597-49T674-122L587-191ZM393-8Q289-8 213 36T96 162 55 356Q55 469 96 550T213 676 393 720Q498 720 574 676T691 551 732 357Q732 244 691 162T574 36 393-8ZM393 94Q491 94 547 161T603 357Q603 485 547 551T393 618Q296 618 240 552T184 357Q184 229 240 162T393 94Z" horiz-adv-x="787" unicode="&#x51;"/><glyph d="M77 0V712H382Q503 712 566 659T629 507Q629 413 564 358T383 302L463 318Q500 318 529 296T575 228L663 0H527L437 237Q423 272 398 284T334 296H204V0H77ZM203 396H364Q438 396 472 423T506 504Q506 559 472 585T364 611H203V396Z" horiz-adv-x="702" unicode="&#x52;"/><glyph d="M318-8Q263-8 213 1T120 30 43 76L86 170Q140 130 196 112T319 94Q393 94 433 120T474 193Q474 221 456 239T402 271 313 296Q250 308 202 325T122 367 74 424 57 504Q57 567 91 616T186 692 331 720Q381 720 428 710T516 682 585 636L541 542Q493 581 441 599T332 618Q263 618 223 590T183 512Q183 483 199 464T250 432 339 406Q401 393 449 376T532 336 583 280 601 202Q601 138 567 91T470 18 318-8Z" horiz-adv-x="645" unicode="&#x53;"/><glyph d="M244 0V606H12V712H606V606H374V0H244Z" horiz-adv-x="618" unicode="&#x54;"/><glyph d="M371-8Q224-8 149 67T73 288V712H199V281Q199 189 242 142T371 94Q453 94 496 142T540 281V712H668V288Q668 143 592 68T371-8Z" horiz-adv-x="740" unicode="&#x55;"/><glyph d="M308 0-9 712H126L382 114H341L600 712H730L414 0H308Z" horiz-adv-x="721" unicode="&#x56;"/><glyph d="M276 0 24 712H155L350 127H314L518 712 610 711 808 127H774L973 712H1096L845 0H740L549 546H573L380 0H276Z" horiz-adv-x="1121" unicode="&#x57;"/><glyph d="M141 0H-10L261 363 335 457 520 712H671L408 362 335 267 141 0ZM529 0 335 267 261 363 0 712H151L335 457 408 362 679 0H529Z" horiz-adv-x="670" unicode="&#x58;"/><glyph d="M250 0V320L277 242-39 712H108L333 362H296L521 712H668L353 242 379 320V0H250Z" horiz-adv-x="629" unicode="&#x59;"/><glyph d="M49 0V94L446 652 445 609H49V712H561V619L162 60 164 103H572V0H49Z" horiz-adv-x="608" unicode="&#x5a;"/><glyph d="M107-182V712H342V617H230V-87H342V-182H107Z" horiz-adv-x="354" unicode="&#x5b;"/><glyph d="M233-59-25 753H80L340-59H233Z" horiz-adv-x="314" unicode="&#x5c;"/><glyph d="M247-182H12V-87H124V617H12V712H247V-182Z" horiz-adv-x="354" unicode="&#x5d;"/><glyph d="M348 636 557 143H460L269 598H331L140 143H43L252 636H348Z" horiz-adv-x="600" unicode="&#x5e;"/><glyph d="M12-75V0H493V-75H12Z" horiz-adv-x="505" unicode="&#x5f;"/><glyph d="M112 559-36 765H92L191 559H112Z" horiz-adv-x="300" unicode="&#x60;"/><glyph d="M264-7Q198-7 147 24T69 114 41 252Q41 332 69 391T147 484 264 518Q328 518 375 487T440 399L428 392V505H551V0H428V114L440 110Q423 54 376 24T264-7ZM298 89Q360 89 394 132T428 254Q428 335 394 377T298 420Q235 420 200 376T165 252Q165 174 200 132T298 89Z" horiz-adv-x="619" unicode="&#x61;"/><glyph d="M67 0V736H192V385L181 400Q197 454 244 486T355 518Q422 518 472 486T551 395 580 257Q580 178 551 118T472 26 355-7Q291-7 244 23T181 110L192 128V0H67ZM323 89Q385 89 419 133T453 257Q453 335 419 377T323 420Q259 420 226 377T192 255Q192 175 225 132T323 89Z" horiz-adv-x="620" unicode="&#x62;"/><glyph d="M296-7Q217-7 160 24T72 114 41 252Q41 332 73 392T164 485 302 518Q355 518 405 501T488 454L452 366Q420 392 384 405T312 419Q246 419 208 377T169 254Q169 174 207 132T313 90Q348 90 384 103T452 144L488 56Q455 26 404 10T296-7Z" horiz-adv-x="504" unicode="&#x63;"/><glyph d="M551 0H428V128L440 110Q423 54 376 24T264-7Q198-7 148 25T69 118 41 257Q41 336 68 395T147 486 264 518Q328 518 375 486T440 400L426 385V736H551V0ZM298 89Q360 89 394 132T428 255Q428 334 394 377T298 420Q235 420 200 378T165 257Q165 177 200 133T298 89Z" horiz-adv-x="619" unicode="&#x64;"/><glyph d="M501 56Q465 26 413 10T306-7Q224-7 165 24T73 114 41 254Q41 332 72 391T158 484 285 518Q355 518 405 488T482 400 510 265V246H151L152 313H436L402 279Q403 352 374 390T288 428Q228 428 195 386T162 264Q162 174 199 132T311 89Q352 89 391 102T465 142L501 56Z" horiz-adv-x="548" unicode="&#x65;"/><glyph d="M5 411V505H338V411H5ZM356 629Q328 637 306 637 284 637 266 629T237 601 226 548V0H101V554Q101 644 146 692T277 740Q298 740 318 738T356 729V629Z" horiz-adv-x="367" unicode="&#x66;"/><glyph d="M299-223Q182-223 94-175L114-80Q160-104 204-115T297-127Q364-127 398-94T432 6V131H444Q432 99 407 73T345 31 266 15Q200 15 149 46T70 133 41 266Q41 342 69 398T149 486 266 518Q331 518 379 486T444 400L432 398V505H556V16Q556-102 491-162T299-223ZM300 112Q362 112 397 153T432 266Q432 338 397 379T300 420Q237 420 201 379T165 266Q165 194 201 153T300 112Z" horiz-adv-x="623" unicode="&#x67;"/><glyph d="M67 0V736H192V403L177 402Q201 459 248 488T358 518Q538 518 538 310V0H413V305Q413 364 390 391T319 419Q261 419 227 383T192 286V0H67Z" horiz-adv-x="602" unicode="&#x68;"/><glyph d="M67 0V505H192V0H67ZM317 734H456V611H317V734Z" horiz-adv-x="260" unicode="&#x69;"/><glyph d="M-61-111Q-46-115-35-117T-12-119Q10-119 28-111T56-83 67-30V505H192V-36Q192-126 147-174T17-222Q-3-222-23-220T-61-211V-111ZM316 734H455V611H316V734Z" horiz-adv-x="260" unicode="&#x6a;"/><glyph d="M413 0 170 257 400 504H552L291 228 297 291 569 0H413ZM67 0V736H192V0H67Z" horiz-adv-x="552" unicode="&#x6b;"/><glyph d="M67 0V736H192V0H67Z" horiz-adv-x="260" unicode="&#x6c;"/><glyph d="M67 0V362Q67 397 66 433T59 505H177L188 405 177 404Q197 458 241 488T345 518Q416 518 456 483T509 374L485 396Q505 451 553 484T665 518Q750 518 792 467T834 310V0H709V306Q709 364 690 391T625 419Q573 419 544 383T514 282V0H389V306Q389 364 369 391T304 419Q251 419 222 383T192 282V0H67Z" horiz-adv-x="899" unicode="&#x6d;"/><glyph d="M67 0V362Q67 398 66 434T59 505H177L188 405 177 402Q201 459 248 488T358 518Q538 518 538 310V0H413V305Q413 364 390 391T319 419Q261 419 227 383T192 286V0H67Z" horiz-adv-x="602" unicode="&#x6e;"/><glyph d="M297-7Q218-7 161 25T72 115 41 255Q41 335 72 394T160 486 297 518Q374 518 431 486T520 395 552 255Q552 174 521 116T432 25 297-7ZM297 89Q359 89 392 130T426 255Q426 337 393 378T297 420Q234 420 200 379T165 255Q165 172 199 131T297 89Z" horiz-adv-x="592" unicode="&#x6f;"/><glyph d="M67-216V362Q67 397 66 433T59 505H177L188 405 181 399Q197 455 244 486T355 518Q421 518 471 485T551 392 580 252Q580 173 551 115T472 25 355-7Q291-7 244 23T181 110L192 126V-216H67ZM323 89Q385 89 419 131T453 252Q453 332 419 376T323 420Q259 420 226 378T192 254Q192 175 225 132T323 89Z" horiz-adv-x="620" unicode="&#x70;"/><glyph d="M551-216H426V126L440 110Q423 54 376 24T264-7Q198-7 147 24T69 114 41 252Q41 332 69 391T147 484 264 518Q328 518 375 487T440 399L431 405 443 505H560Q555 470 553 434T551 362V-216ZM298 89Q360 89 394 132T428 254Q428 335 394 377T298 420Q235 420 200 376T165 252Q165 174 200 132T298 89Z" horiz-adv-x="619" unicode="&#x71;"/><glyph d="M67 0V362Q67 397 66 433T59 505H177L191 375 177 382Q190 449 236 483T340 517Q355 517 368 515T391 509L389 395Q358 408 323 408 278 408 250 390T207 342 192 273V0H67Z" horiz-adv-x="392" unicode="&#x72;"/><glyph d="M253-7Q115-7 35 56L70 144Q110 114 157 99T255 84Q301 84 325 99T349 141Q349 164 332 177T274 201L190 220Q121 235 87 270T52 361Q52 407 78 442T151 498 260 518Q314 518 364 502T451 454L415 368Q377 397 338 411T259 425Q216 425 192 409T168 365Q168 343 182 330T233 309L318 288Q393 272 427 237T462 143Q462 74 406 34T253-7Z" horiz-adv-x="501" unicode="&#x73;"/><glyph d="M5 411V505H361V411H5ZM361 104V5Q341-2 322-4T280-7Q195-7 149 41T102 179V628L227 670V185Q227 151 238 132T267 104 309 96Q322 96 334 98T361 104Z" horiz-adv-x="379" unicode="&#x74;"/><glyph d="M250-7Q157-7 111 44T64 200V505H189V199Q189 144 212 118T281 92Q336 92 369 128T402 224V505H528V0H406V104L419 105Q397 50 353 22T250-7Z" horiz-adv-x="595" unicode="&#x75;"/><glyph d="M216 0-2 504H129L288 109H260L422 504H546L325 0H216Z" horiz-adv-x="543" unicode="&#x76;"/><glyph d="M208 0 10 505H139L281 114H256L399 505H490L632 114H609L751 505H872L674 0H565L411 407H468L317 0H208Z" horiz-adv-x="883" unicode="&#x77;"/><glyph d="M411 0 274 171 203 260 3 505H151L274 348 347 260 558 0H411ZM139 0H-10L203 260 274 348 397 505H546L347 260 274 171 139 0Z" horiz-adv-x="549" unicode="&#x78;"/><glyph d="M56-227 28-131Q75-121 106-108T157-73 192-19L228 63 260 109 422 505H546L312-34Q283-100 245-139T160-199 56-227ZM231-33-2 505H129L288 109 231-33Z" horiz-adv-x="543" unicode="&#x79;"/><glyph d="M49 0V87L356 443 366 411H55V505H477V420L168 61 161 95H488V0H49Z" horiz-adv-x="525" unicode="&#x7a;"/><glyph d="M317-182Q234-182 189-142T144-22V123Q144 173 130 194T80 225L43 236V294L80 305Q115 314 129 335T144 407V552Q144 631 190 671T317 712H379V617H337Q309 617 288 596T267 529V378Q267 341 252 316T215 278 170 264V268Q192 268 214 254T252 214 267 151V1Q267-43 288-65T337-87H379V-182H317Z" horiz-adv-x="391" unicode="&#x7b;"/><glyph d="M82-182V712H199V-182H82Z" horiz-adv-x="282" unicode="&#x7c;"/><glyph d="M74-182H12V-87H55Q83-87 103-65T124 1V151Q124 188 139 214T176 254 221 268V264Q199 264 177 277T139 316 124 378V529Q124 574 104 595T55 617H12V712H74Q155 712 201 672T247 552V407Q247 357 261 336T311 305L348 294V236L311 225Q276 216 262 195T247 123V-22Q247-101 202-141T74-182Z" horiz-adv-x="392" unicode="&#x7d;"/><glyph d="M479 357 546 316Q529 266 493 238T411 210Q379 210 350 221T293 247 242 273 197 284Q168 284 150 268T121 220L54 263Q71 311 107 339T189 368Q221 368 250 357T307 331 358 306 403 294Q432 294 450 310T479 357Z" horiz-adv-x="600" unicode="&#x7e;"/><glyph horiz-adv-x="274" unicode="&#xa0;"/><glyph d="M87 280H163L203-182H48L87 280ZM55 355V494H196V355H55Z" horiz-adv-x="251" unicode="&#xa1;"/><glyph d="M340-7Q262-7 205 25T115 115 83 252Q83 331 116 391T208 484 344 518Q399 518 449 501T530 454L494 366Q463 392 427 405T356 419Q288 419 250 376T212 254Q212 175 249 133T356 90Q390 90 426 103T494 144L530 56Q497 26 447 10T340-7ZM299-119V628H401V-119H299Z" horiz-adv-x="600" unicode="&#xa2;"/><glyph d="M41 316V397H422V316H41ZM253 513V241Q253 192 242 161T205 109 132 74L133 104H569V0H41V87Q88 110 106 139T125 219V522Q125 582 152 627T228 696 342 720Q410 720 470 699T577 637L533 543Q487 580 441 599T352 618Q303 618 278 592T253 513Z" horiz-adv-x="600" unicode="&#xa3;"/><glyph d="M299-3Q231-3 176 31T88 121 55 247Q55 317 87 373T175 464 299 498Q366 498 421 464T510 374 543 247Q543 178 510 122T422 31 299-3ZM99-9 48 41 144 141 195 88 99-9ZM498-9 400 92 448 146 548 41 498-9ZM299 96Q338 96 370 116T421 171 440 247Q440 289 421 323T370 378 299 399Q259 399 227 379T176 324 157 247Q157 206 175 172T226 117 299 96ZM131 369 48 453 100 505 184 418 131 369ZM463 362 409 416 496 506 550 452 463 362Z" horiz-adv-x="600" unicode="&#xa4;"/><glyph d="M235 0V396L262 305-19 712H121L314 424H286L479 712H619L337 305 364 396V0H235ZM66 166V246H534V166H66ZM66 320V400H534V320H66Z" horiz-adv-x="600" unicode="&#xa5;"/><glyph d="M82 375V712H199V375H82ZM82-182V156H199V-182H82Z" horiz-adv-x="282" unicode="&#xa6;"/><glyph d="M431 53 381 112Q398 126 409 149T421 193Q421 224 399 250T330 300L212 359Q165 382 136 408T91 466 76 532Q76 618 135 668T297 719Q352 719 401 704T488 658L454 573Q418 599 380 612T305 625Q254 625 226 604T198 542Q198 513 215 492T272 451L390 396Q465 360 499 317T534 215Q534 165 507 122T431 53ZM269-189Q206-189 153-173T60-126L95-38Q137-67 179-80T267-94Q315-94 343-73T371-12Q371 19 354 39T297 80L178 135Q102 169 69 212T35 315Q35 364 59 405T127 473L184 415Q167 400 157 379T147 337Q147 307 169 282T238 231L358 173Q404 151 434 124T478 66 493-2Q493-91 435-140T269-189Z" horiz-adv-x="569" unicode="&#xa7;"/><glyph d="M184 719H305V604H184V719ZM-2 719H119V604H-2V719Z" horiz-adv-x="300" unicode="&#xa8;"/><glyph d="M412-5Q335-5 270 22T155 99 79 215 51 357Q51 434 78 499T155 613 269 689 412 717Q489 717 554 690T669 614 745 500 773 357Q773 281 746 215T669 100 555 23 412-5ZM412 51Q477 51 532 74T628 138 691 236 714 357Q714 422 692 477T628 574 532 638 412 661Q347 661 292 638T195 574 132 478 109 357Q109 292 131 236T195 139 291 74 412 51ZM424 138Q325 138 268 197T210 357Q210 423 236 472T310 547 424 574Q469 574 509 561T578 523L548 445Q527 461 498 473T439 485Q385 485 355 452T325 357Q325 294 355 261T439 227Q469 227 498 239T548 267L578 189Q550 164 510 151T424 138Z" horiz-adv-x="823" unicode="&#xa9;"/><glyph d="M125 407Q94 407 71 420T35 455 21 501Q21 546 58 567T189 588H220V539H200Q164 539 147 535T123 524 117 506Q117 494 127 486T156 477Q178 477 193 490T209 529V601Q209 622 198 631T160 640Q135 640 110 634T63 614L41 688Q66 701 100 709T171 717Q240 717 274 685T309 583V412H211V480L214 471Q204 440 181 424T125 407Z" horiz-adv-x="339" unicode="&#xaa;"/><glyph d="M158 86 23 267 158 450H265L135 268 263 86H158ZM367 86 232 267 367 450H474L344 268 472 86H367Z" horiz-adv-x="498" unicode="&#xab;"/><glyph d="M546 435V142H457V347H54V435H546Z" horiz-adv-x="600" unicode="&#xac;"/><glyph d="M69 220V319H370V220H69Z" horiz-adv-x="438" unicode="&#xad;"/><glyph d="M412-5Q335-5 270 22T155 99 79 215 51 357Q51 434 78 499T155 613 269 689 412 717Q489 717 554 690T669 614 745 500 773 357Q773 281 746 215T669 100 555 23 412-5ZM412 51Q477 51 532 74T628 138 691 236 714 357Q714 422 692 477T628 574 532 638 412 661Q347 661 292 638T195 574 132 478 109 357Q109 292 131 236T195 139 291 74 412 51ZM246 143V570H439Q516 570 556 534T596 438Q596 380 557 344T445 307L474 313Q500 313 522 302T559 263L624 143H500L428 280Q421 292 413 297T391 303H357V143H246ZM356 383H425Q458 383 473 394T489 433Q489 461 474 473T425 485H356V383Z" horiz-adv-x="823" unicode="&#xae;"/><glyph d="M-4 620V702H307V620H-4Z" horiz-adv-x="300" unicode="&#xaf;"/><glyph d="M185 417Q143 417 108 436T53 490 33 567Q33 610 53 644T108 697 185 717Q228 717 262 698T317 644 337 567Q337 525 317 491T263 437 185 417ZM185 485Q219 485 241 508T264 567Q264 603 242 626T185 649Q151 649 129 626T106 567Q106 531 128 508T185 485Z" horiz-adv-x="371" unicode="&#xb0;"/><glyph d="M546 380V292H54V380H546ZM256 535H344V136H256V535ZM546 89V0H54V89H546Z" horiz-adv-x="600" unicode="&#xb1;"/><glyph d="M46 285V365L184 512Q203 533 214 552T225 589Q225 610 211 621T170 633Q144 633 114 623T56 593L32 672Q61 691 103 703T188 716Q255 716 294 683T334 596Q334 561 318 528T255 452L147 346 140 371H346V285H46Z" horiz-adv-x="380" unicode="&#xb2;"/><glyph d="M184 281Q141 281 98 293T27 324L49 403Q78 385 109 375T175 364Q209 364 226 376T243 411Q243 436 226 447T176 459H110V542H165Q198 542 214 553T231 590Q231 610 217 621T175 633Q146 633 115 623T56 593L32 672Q61 691 103 703T182 716Q257 716 295 682T334 599Q334 564 314 538T259 502L260 507Q299 498 322 471T346 402Q346 368 327 341T272 297 184 281Z" horiz-adv-x="380" unicode="&#xb3;"/><glyph d="M191 559H112L211 765H339L191 559Z" horiz-adv-x="300" unicode="&#xb4;"/><glyph d="M528 505V0H406V104L419 105Q397 50 353 22T250-7Q222-7 202-1T163 17L189 54V-216H64V505H189V199Q189 144 212 118T281 92Q336 92 369 128T402 224V505H528Z" horiz-adv-x="595" unicode="&#xb5;"/><glyph d="M541 712V-182H452V633H340V-182H251V285Q187 285 139 312T64 387 37 499Q37 562 64 610T139 685 254 712H541Z" horiz-adv-x="619" unicode="&#xb6;"/><glyph d="M55 340H196V200H55V340Z" horiz-adv-x="251" unicode="&#xb7;"/><glyph d="M143-197Q123-197 97-193T51-179L63-126Q86-133 105-136T141-140Q164-140 177-133T191-111Q191-88 157-88 146-88 136-90T117-95L97-77 109 20H182L172-55 139-50Q151-45 165-43T191-41Q226-41 249-59T272-111Q272-148 239-172T143-197Z" horiz-adv-x="300" unicode="&#xb8;"/><glyph d="M163 337V618L208 620 88 553V654L193 712H271V337H163ZM83 285V371H350V285H83Z" horiz-adv-x="380" unicode="&#xb9;"/><glyph d="M183 407Q128 407 91 428T36 484 18 563Q18 606 36 640T91 696 183 717Q238 717 274 696T329 641 347 563Q347 520 329 485T275 428 183 407ZM183 490Q212 490 228 509T244 563Q244 599 228 617T183 635Q154 635 138 617T122 563Q122 528 138 509T183 490Z" horiz-adv-x="365" unicode="&#xba;"/><glyph d="M132 86H26L155 268 24 450H132L266 267 132 86ZM341 86H235L364 268 233 450H341L475 267 341 86Z" horiz-adv-x="498" unicode="&#xbb;"/><glyph d="M163 337V618L208 620 88 553V654L193 712H271V337H163ZM83 285V371H350V285H83ZM309-28 225 20 643 740 726 692 309-28ZM782 0V310L800 314 664 127 661 152H941V72H591V148L793 427H879V0H782Z" horiz-adv-x="952" unicode="&#xbc;"/><glyph d="M163 337V618L208 620 88 553V654L193 712H271V337H163ZM83 285V371H350V285H83ZM309-28 225 20 643 740 726 692 309-28ZM618 0V80L756 227Q775 248 786 267T797 304Q797 325 783 336T742 348Q716 348 686 338T628 308L604 387Q633 406 675 418T760 431Q827 431 866 398T906 311Q906 276 890 243T827 167L719 61 712 86H918V0H618Z" horiz-adv-x="952" unicode="&#xbd;"/><glyph d="M184 281Q141 281 98 293T27 324L49 403Q78 385 109 375T175 364Q209 364 226 376T243 411Q243 436 226 447T176 459H110V542H165Q198 542 214 553T231 590Q231 610 217 621T175 633Q146 633 115 623T56 593L32 672Q61 691 103 703T182 716Q257 716 295 682T334 599Q334 564 314 538T259 502L260 507Q299 498 322 471T346 402Q346 368 327 341T272 297 184 281ZM309-28 225 20 643 740 726 692 309-28ZM782 0V310L800 314 664 127 661 152H941V72H591V148L793 427H879V0H782Z" horiz-adv-x="952" unicode="&#xbe;"/><glyph d="M225-189Q168-189 120-170T44-114 15-24Q15 17 32 47T76 100 129 146 176 195 200 256L205 284H279V243Q279 198 266 168T232 116 191 75 157 36 143-13Q143-46 166-66T234-86Q267-86 303-76T374-44V-150Q340-171 302-180T225-189ZM170 355V494H311V355H170Z" horiz-adv-x="463" unicode="&#xbf;"/><glyph d="M130 0H0L322 712H427L749 0H621L359 612H394L130 0ZM142 167 191 267H554L601 167H142ZM334 773 189 928H311L413 773H334Z" horiz-adv-x="749" unicode="&#xc0;"/><glyph d="M130 0H0L322 712H427L749 0H621L359 612H394L130 0ZM142 167 191 267H554L601 167H142ZM413 773H334L436 928H558L413 773Z" horiz-adv-x="749" unicode="&#xc1;"/><glyph d="M130 0H0L322 712H427L749 0H621L359 612H394L130 0ZM142 167 191 267H554L601 167H142ZM307 773H208L336 928H411L539 773H440L374 866 307 773Z" horiz-adv-x="749" unicode="&#xc2;"/><glyph d="M130 0H0L322 712H427L749 0H621L359 612H394L130 0ZM142 167 191 267H554L601 167H142ZM203 785Q203 854 232 887T305 921Q332 921 356 907T401 880 442 866Q462 866 474 880T487 918H544Q544 849 515 816T442 782Q415 782 391 795T346 823 305 837Q285 837 273 823T260 785H203Z" horiz-adv-x="749" unicode="&#xc3;"/><glyph d="M130 0H0L322 712H427L749 0H621L359 612H394L130 0ZM142 167 191 267H554L601 167H142ZM406 908H527V794H406V908ZM220 908H341V794H220V908Z" horiz-adv-x="749" unicode="&#xc4;"/><glyph d="M375 679Q330 679 299 709T268 784Q268 828 299 858T375 889Q420 889 451 859T483 784Q483 739 452 709T375 679ZM375 736Q395 736 408 750T421 784Q421 804 408 817T375 831Q355 831 343 818T330 784Q330 764 342 750T375 736ZM130 0H0L322 712H427L749 0H621L359 612H394L130 0ZM142 167 191 267H554L601 167H142Z" horiz-adv-x="749" unicode="&#xc5;"/><glyph d="M-20 0 422 712H965V610H462L492 627 120 0H-20ZM140 167 188 267H559L586 167H140ZM553 0 503 654H618L662 102H965V0H553ZM570 311V413H944V311H570Z" horiz-adv-x="1007" unicode="&#xc6;"/><glyph d="M400-8Q294-8 216 36T97 163 55 357Q55 468 96 549T216 675 400 720Q472 720 535 699T641 636L599 542Q550 581 503 598T402 616Q299 616 243 550T186 357Q186 231 242 164T402 96Q456 96 503 113T599 170L641 76Q599 35 536 14T400-8ZM384-197Q364-197 338-193T292-179L304-126Q327-133 346-136T382-140Q405-140 418-133T432-111Q432-88 398-88 387-88 377-90T358-95L338-77 350 20H423L413-55 380-50Q392-45 406-43T432-41Q467-41 490-59T513-111Q513-148 480-172T384-197Z" horiz-adv-x="684" unicode="&#xc7;"/><glyph d="M77 0V712H553V611H203V413H533V311H203V101H553V0H77ZM291 773 146 928H268L370 773H291Z" horiz-adv-x="595" unicode="&#xc8;"/><glyph d="M77 0V712H553V611H203V413H533V311H203V101H553V0H77ZM370 773H291L393 928H515L370 773Z" horiz-adv-x="595" unicode="&#xc9;"/><glyph d="M77 0V712H553V611H203V413H533V311H203V101H553V0H77ZM264 773H165L293 928H368L496 773H397L331 866 264 773Z" horiz-adv-x="595" unicode="&#xca;"/><glyph d="M77 0V712H553V611H203V413H533V311H203V101H553V0H77ZM363 908H484V794H363V908ZM177 908H298V794H177V908Z" horiz-adv-x="595" unicode="&#xcb;"/><glyph d="M77 0V712H206V0H77ZM357 773 212 928H334L436 773H357Z" horiz-adv-x="284" unicode="&#xcc;"/><glyph d="M77 0V712H206V0H77ZM436 773H357L459 928H581L436 773Z" horiz-adv-x="284" unicode="&#xcd;"/><glyph d="M77 0V712H206V0H77ZM330 773H231L359 928H434L562 773H463L397 866 330 773Z" horiz-adv-x="284" unicode="&#xce;"/><glyph d="M77 0V712H206V0H77ZM429 908H550V794H429V908ZM243 908H364V794H243V908Z" horiz-adv-x="284" unicode="&#xcf;"/><glyph d="M12 311V409H420V311H12ZM101 0V712H363Q479 712 561 670T687 549 731 357Q731 244 688 164T562 42 363 0H101ZM230 105H355Q478 105 539 168T601 357Q601 607 355 607H230V105Z" horiz-adv-x="786" unicode="&#xd0;"/><glyph d="M77 0V712H173L583 179 556 165V712H677V0H580L172 531 198 547V0H77ZM206 785Q206 854 235 887T308 921Q335 921 359 907T404 880 445 866Q465 866 477 880T490 918H547Q547 849 518 816T445 782Q418 782 394 795T349 823 308 837Q288 837 276 823T263 785H206Z" horiz-adv-x="755" unicode="&#xd1;"/><glyph d="M393-8Q289-8 213 36T96 162 55 356Q55 469 96 550T213 676 393 720Q498 720 574 676T691 551 732 357Q732 244 691 162T574 36 393-8ZM393 94Q491 94 547 161T603 357Q603 485 547 551T393 618Q296 618 240 552T184 357Q184 229 240 162T393 94ZM352 773 207 928H329L431 773H352Z" horiz-adv-x="787" unicode="&#xd2;"/><glyph d="M393-8Q289-8 213 36T96 162 55 356Q55 469 96 550T213 676 393 720Q498 720 574 676T691 551 732 357Q732 244 691 162T574 36 393-8ZM393 94Q491 94 547 161T603 357Q603 485 547 551T393 618Q296 618 240 552T184 357Q184 229 240 162T393 94ZM431 773H352L454 928H576L431 773Z" horiz-adv-x="787" unicode="&#xd3;"/><glyph d="M393-8Q289-8 213 36T96 162 55 356Q55 469 96 550T213 676 393 720Q498 720 574 676T691 551 732 357Q732 244 691 162T574 36 393-8ZM393 94Q491 94 547 161T603 357Q603 485 547 551T393 618Q296 618 240 552T184 357Q184 229 240 162T393 94ZM325 773H226L354 928H429L557 773H458L392 866 325 773Z" horiz-adv-x="787" unicode="&#xd4;"/><glyph d="M393-8Q289-8 213 36T96 162 55 356Q55 469 96 550T213 676 393 720Q498 720 574 676T691 551 732 357Q732 244 691 162T574 36 393-8ZM393 94Q491 94 547 161T603 357Q603 485 547 551T393 618Q296 618 240 552T184 357Q184 229 240 162T393 94ZM221 785Q221 854 250 887T323 921Q350 921 374 907T419 880 460 866Q480 866 492 880T505 918H562Q562 849 533 816T460 782Q433 782 409 795T364 823 323 837Q303 837 291 823T278 785H221Z" horiz-adv-x="787" unicode="&#xd5;"/><glyph d="M393-8Q289-8 213 36T96 162 55 356Q55 469 96 550T213 676 393 720Q498 720 574 676T691 551 732 357Q732 244 691 162T574 36 393-8ZM393 94Q491 94 547 161T603 357Q603 485 547 551T393 618Q296 618 240 552T184 357Q184 229 240 162T393 94ZM424 908H545V794H424V908ZM238 908H359V794H238V908Z" horiz-adv-x="787" unicode="&#xd6;"/><glyph d="M474 525 536 463 126 53 64 115 474 525ZM126 525 536 115 474 53 64 463 126 525Z" horiz-adv-x="600" unicode="&#xd7;"/><glyph d="M393-8Q289-8 213 36T96 162 55 356Q55 469 96 550T213 676 393 720Q498 720 574 676T691 551 732 357Q732 244 691 162T574 36 393-8ZM207-60 123-10 579 772 663 722 207-60ZM393 94Q491 94 547 161T603 357Q603 485 547 551T393 618Q296 618 240 552T184 357Q184 229 240 162T393 94Z" horiz-adv-x="787" unicode="&#xd8;"/><glyph d="M371-8Q224-8 149 67T73 288V712H199V281Q199 189 242 142T371 94Q453 94 496 142T540 281V712H668V288Q668 143 592 68T371-8ZM331 773 186 928H308L410 773H331Z" horiz-adv-x="740" unicode="&#xd9;"/><glyph d="M371-8Q224-8 149 67T73 288V712H199V281Q199 189 242 142T371 94Q453 94 496 142T540 281V712H668V288Q668 143 592 68T371-8ZM410 773H331L433 928H555L410 773Z" horiz-adv-x="740" unicode="&#xda;"/><glyph d="M371-8Q224-8 149 67T73 288V712H199V281Q199 189 242 142T371 94Q453 94 496 142T540 281V712H668V288Q668 143 592 68T371-8ZM304 773H205L333 928H408L536 773H437L371 866 304 773Z" horiz-adv-x="740" unicode="&#xdb;"/><glyph d="M371-8Q224-8 149 67T73 288V712H199V281Q199 189 242 142T371 94Q453 94 496 142T540 281V712H668V288Q668 143 592 68T371-8ZM403 908H524V794H403V908ZM217 908H338V794H217V908Z" horiz-adv-x="740" unicode="&#xdc;"/><glyph d="M250 0V320L277 242-39 712H108L333 362H296L521 712H668L353 242 379 320V0H250ZM353 773H274L376 928H498L353 773Z" horiz-adv-x="629" unicode="&#xdd;"/><glyph d="M187 160V261H372Q441 261 473 285T506 363Q506 415 474 439T372 463H187V564H391Q504 564 566 511T629 363Q629 267 566 214T391 160H187ZM77 0V712H204V0H77Z" horiz-adv-x="666" unicode="&#xde;"/><glyph d="M67 0V474Q67 607 137 675T337 743Q440 743 500 696T560 564Q560 522 545 486T491 418 379 361V383Q473 364 532 333T620 260 648 161Q648 110 623 72T551 14 443-7Q384-7 333 9T246 56L283 147Q321 115 362 101T447 87Q491 87 511 109T532 166Q532 197 510 223T436 273 295 319V411Q352 432 384 454T430 502 443 560Q443 605 416 627T336 650Q268 650 230 611T192 491V0H67Z" horiz-adv-x="673" unicode="&#xdf;"/><glyph d="M264-7Q198-7 147 24T69 114 41 252Q41 332 69 391T147 484 264 518Q328 518 375 487T440 399L428 392V505H551V0H428V114L440 110Q423 54 376 24T264-7ZM298 89Q360 89 394 132T428 254Q428 335 394 377T298 420Q235 420 200 376T165 252Q165 174 200 132T298 89ZM270 570 122 776H250L349 570H270Z" horiz-adv-x="619" unicode="&#xe0;"/><glyph d="M264-7Q198-7 147 24T69 114 41 252Q41 332 69 391T147 484 264 518Q328 518 375 487T440 399L428 392V505H551V0H428V114L440 110Q423 54 376 24T264-7ZM298 89Q360 89 394 132T428 254Q428 335 394 377T298 420Q235 420 200 376T165 252Q165 174 200 132T298 89ZM349 570H270L369 776H497L349 570Z" horiz-adv-x="619" unicode="&#xe1;"/><glyph d="M264-7Q198-7 147 24T69 114 41 252Q41 332 69 391T147 484 264 518Q328 518 375 487T440 399L428 392V505H551V0H428V114L440 110Q423 54 376 24T264-7ZM298 89Q360 89 394 132T428 254Q428 335 394 377T298 420Q235 420 200 376T165 252Q165 174 200 132T298 89ZM246 570H144L270 776H349L475 570H373L310 697 246 570Z" horiz-adv-x="619" unicode="&#xe2;"/><glyph d="M264-7Q198-7 147 24T69 114 41 252Q41 332 69 391T147 484 264 518Q328 518 375 487T440 399L428 392V505H551V0H428V114L440 110Q423 54 376 24T264-7ZM298 89Q360 89 394 132T428 254Q428 335 394 377T298 420Q235 420 200 376T165 252Q165 174 200 132T298 89ZM139 608Q139 676 168 709T241 743Q268 743 292 730T337 702 378 688Q398 688 410 702T423 740H480Q480 672 451 639T378 605Q351 605 327 618T282 645 241 659Q221 659 209 645T196 608H139Z" horiz-adv-x="619" unicode="&#xe3;"/><glyph d="M264-7Q198-7 147 24T69 114 41 252Q41 332 69 391T147 484 264 518Q328 518 375 487T440 399L428 392V505H551V0H428V114L440 110Q423 54 376 24T264-7ZM298 89Q360 89 394 132T428 254Q428 335 394 377T298 420Q235 420 200 376T165 252Q165 174 200 132T298 89ZM342 730H463V615H342V730ZM156 730H277V615H156V730Z" horiz-adv-x="619" unicode="&#xe4;"/><glyph d="M264-7Q198-7 147 24T69 114 41 252Q41 332 69 391T147 484 264 518Q328 518 375 487T440 399L428 392V505H551V0H428V114L440 110Q423 54 376 24T264-7ZM298 89Q360 89 394 132T428 254Q428 335 394 377T298 420Q235 420 200 376T165 252Q165 174 200 132T298 89ZM310 568Q265 568 234 598T202 674Q202 718 233 748T310 779Q339 779 363 765T402 727 417 674Q417 628 386 598T310 568ZM310 625Q330 625 342 639T355 674Q355 693 343 706T310 720Q289 720 277 707T264 673Q264 653 276 639T310 625Z" horiz-adv-x="619" unicode="&#xe5;"/><glyph d="M632-7Q517-7 453 60T388 253Q387 332 416 391T497 484 619 518Q684 518 732 487T806 398 833 264V246H478V313H759L726 279Q727 351 699 389T616 428Q558 428 525 385T492 252Q492 176 527 133T639 89Q676 89 715 102T790 142L824 56Q789 27 737 10T632-7ZM244-7Q188-7 144 13T74 70 48 155Q48 211 76 245T167 296 334 313H380V248H341Q277 248 240 238T187 209 171 161Q171 125 196 104T259 82Q295 82 320 98T358 144 372 211V321Q372 374 351 398T279 422Q236 422 192 409T104 369L69 455Q97 474 133 488T208 510 283 518Q384 518 432 467T481 310V198L440 192Q437 97 384 45T244-7Z" horiz-adv-x="872" unicode="&#xe6;"/><glyph d="M296-7Q217-7 160 24T72 114 41 252Q41 332 73 392T164 485 302 518Q355 518 405 501T488 454L452 366Q420 392 384 405T312 419Q246 419 208 377T169 254Q169 174 207 132T313 90Q348 90 384 103T452 144L488 56Q455 26 404 10T296-7ZM280-197Q260-197 234-193T188-179L200-126Q223-133 242-136T278-140Q301-140 314-133T328-111Q328-88 294-88 283-88 273-90T254-95L234-77 246 20H319L309-55 276-50Q288-45 302-43T328-41Q363-41 386-59T409-111Q409-148 376-172T280-197Z" horiz-adv-x="504" unicode="&#xe7;"/><glyph d="M501 56Q465 26 413 10T306-7Q224-7 165 24T73 114 41 254Q41 332 72 391T158 484 285 518Q355 518 405 488T482 400 510 265V246H151L152 313H436L402 279Q403 352 374 390T288 428Q228 428 195 386T162 264Q162 174 199 132T311 89Q352 89 391 102T465 142L501 56ZM245 570 97 776H225L324 570H245Z" horiz-adv-x="548" unicode="&#xe8;"/><glyph d="M501 56Q465 26 413 10T306-7Q224-7 165 24T73 114 41 254Q41 332 72 391T158 484 285 518Q355 518 405 488T482 400 510 265V246H151L152 313H436L402 279Q403 352 374 390T288 428Q228 428 195 386T162 264Q162 174 199 132T311 89Q352 89 391 102T465 142L501 56ZM324 570H245L344 776H472L324 570Z" horiz-adv-x="548" unicode="&#xe9;"/><glyph d="M501 56Q465 26 413 10T306-7Q224-7 165 24T73 114 41 254Q41 332 72 391T158 484 285 518Q355 518 405 488T482 400 510 265V246H151L152 313H436L402 279Q403 352 374 390T288 428Q228 428 195 386T162 264Q162 174 199 132T311 89Q352 89 391 102T465 142L501 56ZM221 570H119L245 776H324L450 570H348L285 697 221 570Z" horiz-adv-x="548" unicode="&#xea;"/><glyph d="M501 56Q465 26 413 10T306-7Q224-7 165 24T73 114 41 254Q41 332 72 391T158 484 285 518Q355 518 405 488T482 400 510 265V246H151L152 313H436L402 279Q403 352 374 390T288 428Q228 428 195 386T162 264Q162 174 199 132T311 89Q352 89 391 102T465 142L501 56ZM317 730H438V615H317V730ZM131 730H252V615H131V730Z" horiz-adv-x="548" unicode="&#xeb;"/><glyph d="M67 0V505H192V0H67ZM347 570 199 776H327L426 570H347Z" horiz-adv-x="260" unicode="&#xec;"/><glyph d="M67 0V505H192V0H67ZM426 570H347L446 776H574L426 570Z" horiz-adv-x="260" unicode="&#xed;"/><glyph d="M67 0V505H192V0H67ZM323 570H221L347 776H426L552 570H450L387 697 323 570Z" horiz-adv-x="260" unicode="&#xee;"/><glyph d="M67 0V505H192V0H67ZM419 730H540V615H419V730ZM233 730H354V615H233V730Z" horiz-adv-x="260" unicode="&#xef;"/><glyph d="M292-7Q217-7 161 22T73 106 41 231Q41 303 71 356T156 440 282 470Q361 470 409 433T477 321L440 324Q441 415 405 484T304 597 156 658L185 746Q277 729 346 688T463 587 534 455 558 303Q558 153 489 73T292-7ZM297 89Q358 89 392 126T426 231Q426 301 393 338T297 375Q234 375 200 338T165 231Q165 162 199 126T297 89ZM178 504 158 572 535 687 553 619 178 504Z" horiz-adv-x="598" unicode="&#xf0;"/><glyph d="M67 0V362Q67 398 66 434T59 505H177L188 405 177 402Q201 459 248 488T358 518Q538 518 538 310V0H413V305Q413 364 390 391T319 419Q261 419 227 383T192 286V0H67ZM132 608Q132 676 161 709T234 743Q261 743 285 730T330 702 371 688Q391 688 403 702T416 740H473Q473 672 444 639T371 605Q344 605 320 618T275 645 234 659Q214 659 202 645T189 608H132Z" horiz-adv-x="602" unicode="&#xf1;"/><glyph d="M297-7Q218-7 161 25T72 115 41 255Q41 335 72 394T160 486 297 518Q374 518 431 486T520 395 552 255Q552 174 521 116T432 25 297-7ZM297 89Q359 89 392 130T426 255Q426 337 393 378T297 420Q234 420 200 379T165 255Q165 172 199 131T297 89ZM257 570 109 776H237L336 570H257Z" horiz-adv-x="592" unicode="&#xf2;"/><glyph d="M297-7Q218-7 161 25T72 115 41 255Q41 335 72 394T160 486 297 518Q374 518 431 486T520 395 552 255Q552 174 521 116T432 25 297-7ZM297 89Q359 89 392 130T426 255Q426 337 393 378T297 420Q234 420 200 379T165 255Q165 172 199 131T297 89ZM336 570H257L356 776H484L336 570Z" horiz-adv-x="592" unicode="&#xf3;"/><glyph d="M297-7Q218-7 161 25T72 115 41 255Q41 335 72 394T160 486 297 518Q374 518 431 486T520 395 552 255Q552 174 521 116T432 25 297-7ZM297 89Q359 89 392 130T426 255Q426 337 393 378T297 420Q234 420 200 379T165 255Q165 172 199 131T297 89ZM233 570H131L257 776H336L462 570H360L297 697 233 570Z" horiz-adv-x="592" unicode="&#xf4;"/><glyph d="M297-7Q218-7 161 25T72 115 41 255Q41 335 72 394T160 486 297 518Q374 518 431 486T520 395 552 255Q552 174 521 116T432 25 297-7ZM297 89Q359 89 392 130T426 255Q426 337 393 378T297 420Q234 420 200 379T165 255Q165 172 199 131T297 89ZM126 608Q126 676 155 709T228 743Q255 743 279 730T324 702 365 688Q385 688 397 702T410 740H467Q467 672 438 639T365 605Q338 605 314 618T269 645 228 659Q208 659 196 645T183 608H126Z" horiz-adv-x="592" unicode="&#xf5;"/><glyph d="M297-7Q218-7 161 25T72 115 41 255Q41 335 72 394T160 486 297 518Q374 518 431 486T520 395 552 255Q552 174 521 116T432 25 297-7ZM297 89Q359 89 392 130T426 255Q426 337 393 378T297 420Q234 420 200 379T165 255Q165 172 199 131T297 89ZM329 730H450V615H329V730ZM143 730H264V615H143V730Z" horiz-adv-x="592" unicode="&#xf6;"/><glyph d="M239 428V539H349V428H239ZM239 34V145H349V34H239ZM546 333V245H54V333H546Z" horiz-adv-x="600" unicode="&#xf7;"/><glyph d="M297-7Q218-7 161 25T72 115 41 255Q41 335 72 394T160 486 297 518Q374 518 431 486T520 395 552 255Q552 174 521 116T432 25 297-7ZM157-58 94-20 435 566 499 530 157-58ZM297 89Q361 89 395 130T429 255Q429 337 395 379T297 422Q232 422 198 380T163 255Q163 172 197 131T297 89Z" horiz-adv-x="592" unicode="&#xf8;"/><glyph d="M250-7Q157-7 111 44T64 200V505H189V199Q189 144 212 118T281 92Q336 92 369 128T402 224V505H528V0H406V104L419 105Q397 50 353 22T250-7ZM258 570 110 776H238L337 570H258Z" horiz-adv-x="595" unicode="&#xf9;"/><glyph d="M250-7Q157-7 111 44T64 200V505H189V199Q189 144 212 118T281 92Q336 92 369 128T402 224V505H528V0H406V104L419 105Q397 50 353 22T250-7ZM337 570H258L357 776H485L337 570Z" horiz-adv-x="595" unicode="&#xfa;"/><glyph d="M250-7Q157-7 111 44T64 200V505H189V199Q189 144 212 118T281 92Q336 92 369 128T402 224V505H528V0H406V104L419 105Q397 50 353 22T250-7ZM234 570H132L258 776H337L463 570H361L298 697 234 570Z" horiz-adv-x="595" unicode="&#xfb;"/><glyph d="M250-7Q157-7 111 44T64 200V505H189V199Q189 144 212 118T281 92Q336 92 369 128T402 224V505H528V0H406V104L419 105Q397 50 353 22T250-7ZM330 730H451V615H330V730ZM144 730H265V615H144V730Z" horiz-adv-x="595" unicode="&#xfc;"/><glyph d="M56-227 28-131Q75-121 106-108T157-73 192-19L228 63 260 109 422 505H546L312-34Q283-100 245-139T160-199 56-227ZM231-33-2 505H129L288 109 231-33ZM311 570H232L331 776H459L311 570Z" horiz-adv-x="543" unicode="&#xfd;"/><glyph d="M67-216V736H192V385L181 399Q197 455 244 486T355 518Q421 518 471 485T551 393 580 252Q580 172 551 114T472 24 355-7Q291-7 244 23T181 110L192 126V-216H67ZM323 89Q386 89 419 131T453 252Q453 331 419 375T323 420Q259 420 226 378T192 254Q192 175 225 132T323 89Z" horiz-adv-x="620" unicode="&#xfe;"/><glyph d="M56-227 28-131Q75-121 106-108T157-73 192-19L228 63 260 109 422 505H546L312-34Q283-100 245-139T160-199 56-227ZM231-33-2 505H129L288 109 231-33ZM304 730H425V615H304V730ZM118 730H239V615H118V730Z" horiz-adv-x="543" unicode="&#xff;"/><glyph d="M0 232V307H505V232H0Z" horiz-adv-x="505" unicode="&#x2013;"/><glyph d="M0 232V307H1010V232H0Z" horiz-adv-x="1010" unicode="&#x2014;"/><glyph d="M134 719 185 679Q154 646 141 617T128 557L97 586H196V446H55V538Q55 589 73 632T134 719Z" horiz-adv-x="251" unicode="&#x2018;"/><glyph d="M116 438 65 479Q97 512 109 541T122 601L154 572H55V712H196V620Q196 569 178 526T116 438Z" horiz-adv-x="251" unicode="&#x2019;"/><glyph d="M116-133 65-93Q97-61 109-32T122 28L154 0H55V140H196V47Q196-3 178-46T116-133Z" horiz-adv-x="251" unicode="&#x201a;"/><glyph d="M134 719 185 679Q154 646 141 617T128 557L97 586H196V446H55V538Q55 589 73 632T134 719ZM328 719 379 679Q348 646 335 617T322 557L291 586H390V446H249V538Q249 589 267 632T328 719Z" horiz-adv-x="444" unicode="&#x201c;"/><glyph d="M116 438 65 479Q97 512 109 541T122 601L154 572H55V712H196V620Q196 569 178 526T116 438ZM310 438 259 479Q291 512 303 541T316 601L348 572H249V712H390V620Q390 569 372 526T310 438Z" horiz-adv-x="444" unicode="&#x201d;"/><glyph d="M116-133 65-93Q97-61 109-32T122 28L154 0H55V140H196V47Q196-3 178-46T116-133ZM310-133 259-93Q291-61 303-32T316 28L348 0H249V140H390V47Q390-3 372-46T310-133Z" horiz-adv-x="444" unicode="&#x201e;"/><glyph d="M265 89Q216 89 174 112T107 177 82 268Q82 314 105 355T170 421 265 447Q314 447 355 424T421 360 447 268Q447 219 423 178T357 113 265 89Z" horiz-adv-x="529" unicode="&#x2022;"/><glyph d="M158 86 23 267 158 450H265L135 268 263 86H158Z" horiz-adv-x="289" unicode="&#x2039;"/><glyph d="M132 86H26L155 268 24 450H132L266 267 132 86Z" horiz-adv-x="289" unicode="&#x203a;"/></font>
</defs>
</svg>
