<svg xmlns="http://www.w3.org/2000/svg"><defs><font horiz-adv-x="565"><font-face alphabetic="0" ascent="1005" descent="-250" panose-1="0 0 0 0 0 0 0 0 0 0"/><glyph horiz-adv-x="290" unicode="&#x20;"/><glyph d="M83 247 26 713 249 712 193 247H83ZM43 186H232V0H43V186Z" horiz-adv-x="276" unicode="&#x21;"/><glyph d="M76 402 32 712H239L197 402H76ZM298 402 254 712H461L419 402H298Z" horiz-adv-x="494" unicode="&#x26;&#x71;&#x75;&#x6f;&#x74;&#x3b;"/><glyph d="M276 0 417 712H534L392 0H276ZM56 160V269H527V160H56ZM72 0 214 712H330L189 0H72ZM79 452V560H551V452H79Z" horiz-adv-x="606" unicode="&#x23;"/><glyph d="M299-9Q215-9 143 10T21 66L80 198Q128 166 180 150T292 134Q347 134 374 151T402 204Q402 228 382 242T328 265 255 284 175 308 102 345 48 404 28 497Q28 561 65 611T167 691 313 721Q362 721 410 712T500 685 569 646L510 513Q409 578 315 578 270 578 242 561T214 509Q214 483 234 468T288 443 361 424 441 402 514 365 568 306 588 213Q588 147 552 97T451 19 299-9ZM238-116V23L252 106V628L238 698V828H382V698L370 628V106L382 23V-116H238Z" horiz-adv-x="600" unicode="&#x24;"/><glyph d="M190 281Q107 281 59 336T11 500Q11 606 59 661T190 716Q273 716 321 661T369 499Q369 392 321 337T190 281ZM190 392Q206 392 214 415T222 499Q222 558 214 581T190 605Q174 605 166 582T157 499Q157 439 165 416T190 392ZM168 0 582 712H757L343 0H168ZM735-4Q652-4 604 51T556 215Q556 321 604 376T735 431Q818 431 866 376T914 214Q914 107 866 52T735-4ZM735 107Q751 107 759 130T767 214Q767 273 759 296T735 320Q719 320 711 297T702 214Q702 154 710 131T735 107Z" horiz-adv-x="925" unicode="&#x25;"/><glyph d="M287-8Q209-8 150 17T57 89 23 196Q23 276 75 333T238 435Q285 453 313 470T355 505 368 544Q368 571 353 586T313 602Q285 602 268 585T250 538Q250 524 256 510T279 478 326 431L571 205Q610 167 653 145T745 114L660-10Q604 3 560 26T474 89L170 378Q144 402 126 428T100 481 91 536Q91 591 118 632T195 696 310 719Q401 719 455 673T509 551Q509 504 487 465T422 394 315 339Q276 325 250 306T212 263 199 209Q199 171 224 150T292 128Q353 128 405 169T492 282 533 442H681Q676 347 644 265T558 122 435 26 287-8Z" horiz-adv-x="709" unicode="&#x26;&#x61;&#x6d;&#x70;&#x3b;"/><glyph d="M76 402 32 712H239L197 402H76Z" horiz-adv-x="272" unicode="&#x26;&#x61;&#x70;&#x6f;&#x73;&#x3b;"/><glyph d="M236-182Q185-96 155-23T112 120 99 266Q99 342 112 413T155 558 238 712H381Q341 611 321 536T293 396 285 266Q285 200 292 136T320-4 378-182H236Z" horiz-adv-x="404" unicode="&#x28;"/><glyph d="M166-182H25Q63-80 83-4T110 136 118 266Q118 332 111 396T83 535 23 712H165Q242 591 273 485T305 266Q305 190 292 121T249-22 166-182Z" horiz-adv-x="404" unicode="&#x29;"/><glyph d="M160 325 63 397 148 497 19 529 57 644 179 594 170 726H291L281 596 404 644 441 529 312 498 398 397 299 325 230 436 160 325Z" horiz-adv-x="460" unicode="&#x2a;"/><glyph d="M546 351V230H54V351H546ZM239 537H361V44H239V537Z" horiz-adv-x="600" unicode="&#x2b;"/><glyph d="M128-157 61-103Q99-65 116-31T134 44L175 0H43V186H232V69Q232 5 209-48T128-157Z" horiz-adv-x="276" unicode="&#x2c;"/><glyph d="M64 201V341H388V201H64Z" horiz-adv-x="450" unicode="&#x2d;"/><glyph d="M43 186H232V0H43V186Z" horiz-adv-x="276" unicode="&#x2e;"/><glyph d="M117-64H-28L235 758H381L117-64Z" horiz-adv-x="353" unicode="&#x2f;"/><glyph d="M300-9Q168-9 98 85T27 357Q27 532 97 625T300 719Q432 719 502 626T573 357Q573 179 503 85T300-9ZM300 132Q348 132 369 184T390 357Q390 474 369 526T300 578Q252 578 231 526T210 357Q210 237 231 185T300 132Z" horiz-adv-x="600" unicode="&#x30;"/><glyph d="M245 87V557H331L102 426V587L322 712H432V87H245ZM92 0V149H586V0H92Z" horiz-adv-x="600" unicode="&#x31;"/><glyph d="M57 0V138L289 380Q321 414 337 445T354 507Q354 542 333 559T272 576Q230 576 183 560T90 512L31 645Q74 680 142 700T282 721Q359 721 416 697T505 627 537 520Q537 457 513 407T429 294L240 101 214 149H559V0H57Z" horiz-adv-x="601" unicode="&#x32;"/><glyph d="M279-8Q204-8 134 12T21 68L80 201Q126 169 174 153T270 137Q330 137 355 154T380 214Q380 254 356 271T274 288H163V432H255Q311 432 335 447T360 498Q360 536 337 556T271 576Q228 576 181 560T90 512L31 645Q74 680 143 700T284 721Q361 721 417 697T505 629 537 525Q537 465 505 423T413 362L415 370Q482 354 519 309T556 194Q556 100 481 46T279-8Z" horiz-adv-x="600" unicode="&#x33;"/><glyph d="M312 0V481H347L166 222V263H588V120H27V258L346 712H496V0H312Z" horiz-adv-x="600" unicode="&#x34;"/><glyph d="M287-8Q218-8 150 12T41 68L99 201Q146 169 194 153T290 137Q346 137 373 159T400 229Q400 260 387 281T350 313 292 324Q264 324 231 315T171 290H68V712H538V570H250V402L195 412Q226 440 263 453T348 467Q415 467 466 438T546 358 576 237Q576 162 541 107T440 22 287-8Z" horiz-adv-x="600" unicode="&#x35;"/><glyph d="M324-9Q182-9 104 83T26 349Q26 465 63 548T171 676 337 721Q404 721 467 702T575 645L516 512Q468 547 424 561T346 576Q279 576 246 520T212 353V339L195 362Q205 394 229 418T287 455 361 469Q423 469 471 439T546 357 574 237Q574 165 542 110T454 23 324-9ZM314 135Q353 135 376 161T399 229Q399 273 377 298T314 324Q289 324 270 313T240 280 229 229Q229 201 239 180T269 147 314 135Z" horiz-adv-x="600" unicode="&#x36;"/><glyph d="M255 0H55L391 613 390 563H36V712H565V572L255 0Z" horiz-adv-x="600" unicode="&#x37;"/><glyph d="M300-8Q219-8 156 16T56 86 19 196Q19 271 67 317T201 374L200 358Q127 372 82 417T37 527Q37 587 72 630T166 697 300 721Q374 721 433 698T528 631 563 527Q563 460 518 415T402 359L401 374Q484 362 532 316T581 196Q581 132 545 87T445 17 300-8ZM300 133Q346 133 377 152T408 211Q408 249 378 271T300 303Q252 294 222 272T192 211Q192 172 223 153T300 133ZM300 417Q337 426 362 446T388 505Q388 545 363 562T300 580Q263 580 238 563T212 505Q212 467 237 447T300 417Z" horiz-adv-x="600" unicode="&#x38;"/><glyph d="M275 721Q418 721 495 629T573 363Q573 247 536 164T429 36 263-9Q196-9 133 10T25 67L84 200Q133 165 176 151T254 136Q321 136 354 192T388 359V373L405 350Q395 318 371 294T312 257 238 243Q177 243 129 273T53 355 25 475Q25 547 57 602T146 689 275 721ZM286 577Q246 577 224 551T201 483Q201 439 223 414T286 388Q311 388 330 399T360 432 371 483Q371 511 361 532T331 565 286 577Z" horiz-adv-x="600" unicode="&#x39;"/><glyph d="M43 186H232V0H43V186ZM43 497H232V312H43V497Z" horiz-adv-x="276" unicode="&#x3a;"/><glyph d="M43 497H232V312H43V497ZM128-157 61-103Q99-65 116-31T134 44L175 0H43V186H232V69Q232 5 209-48T128-157Z" horiz-adv-x="276" unicode="&#x3b;"/><glyph d="M54 223V358L546 550V418L98 246V335L546 163V31L54 223Z" horiz-adv-x="600" unicode="&#x26;&#x6c;&#x74;&#x3b;"/><glyph d="M546 452V331H54V452H546ZM546 250V129H54V250H546Z" horiz-adv-x="600" unicode="&#x3d;"/><glyph d="M546 223 54 31V163L502 335V246L54 418V550L546 358V223Z" horiz-adv-x="600" unicode="&#x26;&#x67;&#x74;&#x3b;"/><glyph d="M89 679Q125 702 166 711T247 721Q316 721 368 699T450 637 480 545Q480 504 463 473T421 417 369 371 322 328 297 282L290 241H184V303Q184 341 195 368T223 415 256 452 284 487 296 527Q296 552 280 564T231 576Q200 576 163 566T89 532V679ZM145 0V186H333V0H145Z" horiz-adv-x="484" unicode="&#x3f;"/><glyph d="M487-164Q348-164 247-109T92 42 37 264Q37 374 71 458T166 601 309 689 490 719Q592 719 671 692T805 614 888 495 916 342Q916 279 902 228T859 140 792 84 704 64Q649 64 616 87T572 146H570Q546 113 514 89T426 64Q345 64 305 116T264 248Q264 303 279 350T323 432 390 486 475 505Q512 505 542 491T587 446H591L600 497H727L687 275Q678 224 683 194T727 164Q737 164 749 173T773 202 791 257 798 342Q798 407 778 457T719 543 623 596 490 614Q419 614 360 591T257 524 189 415 165 264Q165 167 203 95T314-17 487-58Q558-58 606-42T678 0H841Q805-69 715-116T487-164ZM454 164Q492 164 517 187T555 246 568 322Q568 364 550 384T499 405Q463 405 440 381T405 320 393 247Q393 212 408 188T454 164Z" horiz-adv-x="953" unicode="&#x40;"/><glyph d="M165 0H-23L310 712H458L792 0H607L366 561H407L165 0ZM131 147 204 288H553L625 147H131Z" horiz-adv-x="769" unicode="&#x41;"/><glyph d="M64 0V712H410Q521 712 587 662T654 527Q654 469 622 426T529 365V373Q599 356 636 310T674 195Q674 107 606 54T419 0H64ZM247 142H397Q451 142 474 159T498 216Q498 256 475 273T397 291H247V142ZM247 433H378Q430 433 454 449T478 500Q478 537 454 553T378 570H247V433Z" horiz-adv-x="702" unicode="&#x42;"/><glyph d="M410-9Q298-9 216 36T90 164 45 357Q45 466 89 548T216 675 410 721Q480 721 545 700T651 643L594 510Q548 543 504 558T414 573Q329 573 283 519T236 357Q236 249 282 194T414 139Q460 139 504 154T594 202L651 69Q611 33 546 12T410-9Z" horiz-adv-x="685" unicode="&#x43;"/><glyph d="M64 0V712H355Q474 712 559 670T689 548 735 357Q735 245 690 165T560 43 355 0H64ZM252 150H342Q446 150 497 201T549 357Q549 562 342 562H252V150Z" horiz-adv-x="781" unicode="&#x44;"/><glyph d="M64 0V712H572V568H247V434H551V290H247V144H572V0H64Z" horiz-adv-x="604" unicode="&#x45;"/><glyph d="M64 0V712H561V565H249V435H541V289H249V0H64Z" horiz-adv-x="584" unicode="&#x46;"/><glyph d="M424-9Q307-9 222 35T91 161 45 357Q45 468 91 550T220 676 417 721Q494 721 562 701T674 646L615 513Q565 545 520 559T423 574Q328 574 282 521T235 357Q235 243 283 188T433 133Q465 133 499 138T568 154L527 100V275H403V402H696V45Q658 27 614 15T521-3 424-9Z" horiz-adv-x="751" unicode="&#x47;"/><glyph d="M536 0V712H720V0H536ZM64 0V712H248V0H64ZM119 288V435H647V288H119Z" horiz-adv-x="784" unicode="&#x48;"/><glyph d="M64 0V712H252V0H64Z" horiz-adv-x="316" unicode="&#x49;"/><glyph d="M2-179V-29Q65-36 96-33T139-11 150 53V712H338V56Q338-40 308-98T205-177 2-179Z" horiz-adv-x="403" unicode="&#x4a;"/><glyph d="M537 0 215 365 529 712H749L384 320 399 415 760 0H537ZM64 0V712H252V0H64Z" horiz-adv-x="706" unicode="&#x4b;"/><glyph d="M64 0V712H252V152H553V0H64Z" horiz-adv-x="579" unicode="&#x4c;"/><glyph d="M67 0V712H214L458 155H396L639 712H785V0H621L620 428 658 417 485 0H366L190 417 230 428V0H67Z" horiz-adv-x="852" unicode="&#x4d;"/><glyph d="M64 0V712H201L555 271 524 247V712H701V0H562L211 439 239 465V0H64Z" horiz-adv-x="766" unicode="&#x4e;"/><glyph d="M403-9Q293-9 213 36T89 163 45 357Q45 468 89 550T213 676 403 721Q513 721 592 677T715 550 759 357Q759 245 716 163T593 36 403-9ZM403 134Q481 134 527 190T574 357Q574 467 528 522T403 578Q325 578 279 523T233 357Q233 245 279 190T403 134Z" horiz-adv-x="805" unicode="&#x4f;"/><glyph d="M64 0V712H403Q527 712 593 653T659 495Q659 396 592 337T403 278H252V0H64ZM252 418H378Q433 418 458 437T484 493Q484 531 459 550T378 570H252V418Z" horiz-adv-x="685" unicode="&#x50;"/><glyph d="M598-191Q539-153 495-105T420-4L580 63Q604 12 644-27T723-100L598-191ZM403-9Q293-9 213 36T89 163 45 357Q45 468 89 550T213 676 403 721Q513 721 592 677T715 550 759 357Q759 245 716 163T593 36 403-9ZM403 134Q481 134 527 190T574 357Q574 467 528 522T403 578Q325 578 279 523T233 357Q233 245 279 190T403 134Z" horiz-adv-x="805" unicode="&#x51;"/><glyph d="M64 0V712H395Q525 712 589 656T654 498Q654 402 587 343T399 283L485 301Q521 301 551 279T599 212L683 0H484L392 237Q383 259 362 268T317 277H249V0H64ZM247 417H365Q426 417 452 435T479 493Q479 534 453 552T365 570H247V417Z" horiz-adv-x="714" unicode="&#x52;"/><glyph d="M322-9Q269-9 216 0T117 27 37 69L96 202Q148 168 206 151T324 134Q385 134 416 151T448 197Q448 214 437 227T396 252 310 276Q233 291 183 311T104 358 64 418 52 492Q52 557 89 609T192 691 346 721Q397 721 447 712T539 685 609 643L551 510Q503 544 451 561T348 578Q297 578 266 559T235 506Q235 490 245 477T286 453 377 428Q451 413 500 392T578 345 619 286 631 214Q631 145 595 95T490 18 322-9Z" horiz-adv-x="672" unicode="&#x53;"/><glyph d="M224 0V560H12V712H626V560H414V0H224Z" horiz-adv-x="638" unicode="&#x54;"/><glyph d="M377-9Q221-9 141 69T61 300V712H244V293Q244 217 278 176T377 134Q440 134 474 175T508 293V712H693V300Q693 150 612 71T377-9Z" horiz-adv-x="752" unicode="&#x55;"/><glyph d="M301 0-23 712H172L403 174H351L585 712H774L450 0H301Z" horiz-adv-x="751" unicode="&#x56;"/><glyph d="M266 0 12 712H203L370 200H327L508 712H636L807 200H770L942 712H1120L865 0H716L554 460H580L415 0H266Z" horiz-adv-x="1132" unicode="&#x57;"/><glyph d="M186 0H-32L239 360 345 496 502 712H720L452 360 346 222 186 0ZM505 0 346 222 239 360-26 712H191L345 496 452 360 724 0H505Z" horiz-adv-x="694" unicode="&#x58;"/><glyph d="M234 0V320L273 216-65 712H147L351 390H303L510 712H724L385 216 423 320V0H234Z" horiz-adv-x="657" unicode="&#x59;"/><glyph d="M53 0V137L400 610V565H53V712H578V577L227 102 229 147H589V0H53Z" horiz-adv-x="624" unicode="&#x5a;"/><glyph d="M103-182V712H384V578H280V-48H384V-182H103Z" horiz-adv-x="401" unicode="&#x5b;"/><glyph d="M234-64-28 758H117L380-64H234Z" horiz-adv-x="352" unicode="&#x5c;"/><glyph d="M298-182H17V-48H121V578H17V712H298V-182Z" horiz-adv-x="401" unicode="&#x5d;"/><glyph d="M368 638 560 145H427L256 594H344L173 145H39L232 638H368Z" horiz-adv-x="600" unicode="&#x5e;"/><glyph d="M17-103V0H488V-103H17Z" horiz-adv-x="505" unicode="&#x5f;"/><glyph d="M97 562-64 770H108L206 562H97Z" horiz-adv-x="300" unicode="&#x60;"/><glyph d="M255-8Q190-8 139 24T60 115 31 253Q31 333 60 393T139 488 255 522Q313 522 359 494T423 419L411 412V508H589V0H411V93H423Q406 46 360 19T255-8ZM311 127Q358 127 384 160T411 255Q411 319 385 352T311 385Q264 385 237 351T210 253Q210 192 236 160T311 127Z" horiz-adv-x="643" unicode="&#x61;"/><glyph d="M54 0V736H235V398L222 420Q238 465 284 493T389 522Q455 522 505 490T585 398 614 259Q614 179 585 119T506 26 389-8Q330-8 284 19T222 93L233 119V0H54ZM334 127Q382 127 407 161T433 259Q433 320 408 352T334 385Q285 385 259 352T233 257Q233 193 259 160T334 127Z" horiz-adv-x="645" unicode="&#x62;"/><glyph d="M306-8Q220-8 158 23T64 114 31 253Q31 334 66 394T165 488 314 522Q370 522 424 506T510 461L464 336Q437 358 401 371T332 384Q278 384 247 353T216 257Q216 191 246 160T333 128Q365 128 401 140T464 176L510 53Q476 24 422 8T306-8Z" horiz-adv-x="515" unicode="&#x63;"/><glyph d="M589 0H411V119L423 93Q406 46 360 19T255-8Q190-8 140 25T60 119 31 259Q31 338 59 397T139 489 255 522Q313 522 359 494T423 420L408 398V736H589V0ZM311 127Q359 127 385 160T411 257Q411 318 385 351T311 385Q262 385 236 353T210 259Q210 195 237 161T311 127Z" horiz-adv-x="643" unicode="&#x64;"/><glyph d="M514 52Q476 23 422 8T314-8Q226-8 163 24T65 115 31 256Q31 334 63 394T153 488 285 522Q358 522 411 490T494 399 523 260V236H191L193 320H414L370 291Q370 345 350 371T290 398Q247 398 225 367T202 271Q202 192 231 159T323 125Q361 125 399 137T468 172L514 52Z" horiz-adv-x="553" unicode="&#x65;"/><glyph d="M3 375V508H376V375H3ZM399 588Q369 595 351 595 331 595 314 587T287 563 277 520V0H96V522Q96 623 148 682T305 741Q330 741 354 738T399 727V588Z" horiz-adv-x="405" unicode="&#x66;"/><glyph d="M300-224Q178-224 85-180L112-48Q157-69 204-80T294-91Q356-91 385-65T415 18V128L427 113Q415 90 390 67T331 29 257 14Q192 14 141 45T60 133 31 268Q31 344 60 401T140 490 257 522Q316 522 363 494T427 420L415 402V508H595V32Q595-94 520-159T300-224ZM313 149Q361 149 388 180T415 268Q415 322 389 353T313 385Q265 385 238 354T210 268Q210 213 238 181T313 149Z" horiz-adv-x="647" unicode="&#x67;"/><glyph d="M54 0V736H235V405L216 417Q244 467 289 494T394 522Q573 522 573 303V0H392V295Q392 342 376 362T326 383Q285 383 260 356T235 283V0H54Z" horiz-adv-x="624" unicode="&#x68;"/><glyph d="M54 0V508H235V0H54ZM305 757H494V594H305V757Z" horiz-adv-x="289" unicode="&#x69;"/><glyph d="M-69-72Q-54-76-43-77T-20-79Q0-79 17-71T44-47 54-4V508H235V-6Q235-107 183-166T25-225Q0-225-24-222T-69-211V-72ZM304 757H493V594H304V757Z" horiz-adv-x="289" unicode="&#x6a;"/><glyph d="M408 0 204 258 405 507H619L383 221 392 298 627 0H408ZM54 0V736H235V0H54Z" horiz-adv-x="598" unicode="&#x6b;"/><glyph d="M54 0V736H235V0H54Z" horiz-adv-x="289" unicode="&#x6c;"/><glyph d="M54 0V362Q54 398 53 435T46 508H216L228 412 216 420Q238 468 281 495T385 522Q453 522 493 487T547 381L523 413Q548 462 595 492T701 522Q790 522 832 468T874 303V0H693V298Q693 342 680 362T634 383Q596 383 575 355T554 276V0H373V298Q373 342 360 362T314 383Q276 383 256 355T235 276V0H54Z" horiz-adv-x="925" unicode="&#x6d;"/><glyph d="M54 0V362Q54 398 53 435T46 508H216L228 412 216 417Q244 467 289 494T394 522Q573 522 573 303V0H392V295Q392 342 376 362T326 383Q285 383 260 356T235 283V0H54Z" horiz-adv-x="624" unicode="&#x6e;"/><glyph d="M310-8Q224-8 162 24T65 115 31 257Q31 338 65 397T161 489 310 522Q394 522 456 490T553 398 587 257Q587 175 553 116T457 24 310-8ZM310 127Q357 127 382 158T408 257Q408 324 383 355T310 386Q261 386 236 355T210 257Q210 189 235 158T310 127Z" horiz-adv-x="618" unicode="&#x6f;"/><glyph d="M54-216V362Q54 398 53 435T46 508H216L228 413 222 419Q238 465 284 493T389 522Q455 522 505 488T585 394 614 253Q614 174 585 115T506 24 389-8Q330-8 284 19T222 93L235 116V-216H54ZM334 127Q383 127 408 159T433 253Q433 316 408 350T334 385Q285 385 259 352T233 255Q233 193 259 160T334 127Z" horiz-adv-x="645" unicode="&#x70;"/><glyph d="M589-216H408V116L423 93Q406 46 360 19T255-8Q190-8 139 24T60 115 31 253Q31 333 60 393T139 488 255 522Q313 522 359 494T423 419L415 413 428 508H599Q593 472 591 435T589 362V-216ZM311 127Q358 127 384 160T411 255Q411 319 385 352T311 385Q264 385 237 351T210 253Q210 192 236 160T311 127Z" horiz-adv-x="643" unicode="&#x71;"/><glyph d="M54 0V362Q54 398 53 435T46 508H216L233 371 216 381Q226 450 271 485T375 520Q394 520 408 517T432 509V344Q389 364 349 364 313 364 288 353T249 317 235 255V0H54Z" horiz-adv-x="430" unicode="&#x72;"/><glyph d="M259-8Q107-8 19 53L65 176Q106 148 158 133T260 117Q291 117 308 126T325 151Q325 165 313 173T265 189L183 208Q105 224 71 258T36 354Q36 403 65 441T145 500 264 522Q320 522 373 506T471 461L423 341Q383 367 341 381T262 395Q233 395 216 386T198 358Q198 347 208 341T246 327L331 308Q412 290 447 253T483 153Q483 78 424 35T259-8Z" horiz-adv-x="507" unicode="&#x73;"/><glyph d="M3 375V508H401V375H3ZM402 144V7Q379-2 356-5T308-8Q203-8 151 51T98 211V623L279 681V211Q279 186 289 170T317 146 354 138Q364 138 375 139T402 144Z" horiz-adv-x="416" unicode="&#x74;"/><glyph d="M243-8Q146-8 99 46T51 211V508H232V206Q232 168 248 150T297 131Q335 131 358 158T382 230V508H565V0H388V98L402 93Q379 44 339 18T243-8Z" horiz-adv-x="619" unicode="&#x75;"/><glyph d="M204 0-19 507H169L299 173H266L401 507H579L353 0H204Z" horiz-adv-x="559" unicode="&#x76;"/><glyph d="M201 0-11 508H173L299 182H274L396 508H512L635 182H615L736 508H910L698 0H549L409 348H484L351 0H201Z" horiz-adv-x="900" unicode="&#x77;"/><glyph d="M391 0 283 136 181 262-23 508H189L283 386 386 262 603 0H391ZM175 0H-36L181 262 283 386 376 508H590L386 262 283 136 175 0Z" horiz-adv-x="567" unicode="&#x78;"/><glyph d="M59-228 17-90Q64-81 94-68T144-37 175 7L217 99 266 173 401 508H579L346-18Q314-91 271-134T175-199 59-228ZM222-43-19 508H169L299 173 222-43Z" horiz-adv-x="559" unicode="&#x79;"/><glyph d="M47 0V127L307 407 314 375H48V508H494V389L227 101 224 134H504V0H47Z" horiz-adv-x="535" unicode="&#x7a;"/><glyph d="M355-182Q253-182 197-134T140 8V93Q140 151 127 173T84 206L36 222V306L84 323Q114 334 127 355T140 435V522Q140 615 195 663T355 712H421V578H391Q364 578 341 555T317 480V388Q317 351 301 323T261 279 214 263V267Q237 267 261 251T301 206 317 140V50Q317 0 340-24T391-48H421V-182H355Z" horiz-adv-x="438" unicode="&#x7b;"/><glyph d="M69-182V712H235V-182H69Z" horiz-adv-x="305" unicode="&#x7c;"/><glyph d="M83-182H17V-48H48Q75-48 98-24T121 50V140Q121 177 137 205T177 250 225 267V263Q202 263 178 279T137 323 121 388V480Q121 531 98 554T48 578H17V712H83Q187 712 242 664T298 522V435Q298 377 311 356T354 323L402 306V222L354 206Q325 195 312 173T298 93V8Q298-86 242-134T83-182Z" horiz-adv-x="438" unicode="&#x7d;"/><glyph d="M458 374 546 315Q531 262 491 232T404 201Q375 201 348 211T295 234 248 257 207 267Q185 267 169 253T142 207L54 267Q70 319 110 350T196 381Q225 381 252 371T305 349 352 326 393 316Q415 316 431 329T458 374Z" horiz-adv-x="600" unicode="&#x7e;"/><glyph horiz-adv-x="290" unicode="&#xa0;"/><glyph d="M83 250H193L249-181 26-182 83 250ZM43 312V497H232V312H43Z" horiz-adv-x="276" unicode="&#xa1;"/><glyph d="M347-8Q263-8 201 24T106 114 72 253Q72 333 108 393T207 488 354 522Q411 522 464 506T551 461L504 336Q478 358 442 371T373 384Q317 384 288 352T258 257Q258 193 287 161T374 128Q405 128 441 140T504 176L551 53Q516 24 462 8T347-8ZM300-119V631H443V-119H300Z" horiz-adv-x="600" unicode="&#xa2;"/><glyph d="M36 303V410H439V303H36ZM285 504V263Q285 216 273 186T231 136 144 102L146 149H576V0H36V126Q74 146 86 170T99 241V517Q99 577 130 623T216 695 343 721Q414 721 477 702T588 646L530 513Q480 545 437 560T360 576Q323 576 304 558T285 504Z" horiz-adv-x="600" unicode="&#xa3;"/><glyph d="M297-3Q229-3 174 31T85 121 52 247Q52 317 85 373T173 464 297 498Q365 498 420 464T509 374 542 247Q542 178 509 122T421 31 297-3ZM104-14 42 46 149 157 213 96 104-14ZM493-13 377 106 432 173 553 46 493-13ZM298 136Q326 136 349 151T387 192 401 247Q401 278 387 303T350 343 298 359Q268 360 245 345T207 304 193 247Q193 217 206 192T243 152 298 136ZM130 359 42 448 105 510 197 416 130 359ZM457 344 390 409 489 513 557 445 457 344Z" horiz-adv-x="600" unicode="&#xa4;"/><glyph d="M205 0V418L244 293-33 712H167L318 463H281L433 712H633L354 293 394 418V0H205ZM61 152V258H539V152H61ZM61 308V414H539V308H61Z" horiz-adv-x="600" unicode="&#xa5;"/><glyph d="M69 375V712H235V375H69ZM69-182V156H235V-182H69Z" horiz-adv-x="305" unicode="&#xa6;"/><glyph d="M453 60 380 133Q394 144 406 164T418 199Q418 225 399 249T347 288L197 360Q158 378 129 404T84 460 68 520Q68 611 134 664T317 719Q380 720 433 706T531 662L486 543Q453 565 413 577T333 590Q291 590 268 577T244 538Q244 521 257 507T296 482L442 417Q509 389 543 345T577 241Q577 182 546 136T453 60ZM279-189Q210-188 153-173T55-128L100-5Q141-31 187-45T274-59Q313-59 336-45T360-7Q360 11 348 23T307 49L161 113Q92 142 60 185T27 290Q27 346 55 389T137 464L218 393Q205 380 195 362T185 331Q185 305 203 282T255 243L407 174Q445 157 474 131T519 73 536 10Q536-88 470-139T279-189Z" horiz-adv-x="604" unicode="&#xa7;"/><glyph d="M172 740H332V588H172V740ZM-29 740H131V588H-29V740Z" horiz-adv-x="300" unicode="&#xa8;"/><glyph d="M412-5Q335-5 270 22T155 99 79 215 51 357Q51 434 78 499T155 613 269 689 412 717Q489 717 554 690T669 614 745 500 773 357Q773 281 746 215T669 100 555 23 412-5ZM412 65Q475 65 527 87T618 148 678 241 699 357Q699 419 678 472T619 564 528 625 412 647Q349 647 297 625T205 564 145 472 124 357Q124 294 145 241T205 149 296 87 412 65ZM429 138Q325 138 264 198T203 357Q203 422 230 471T309 547 429 574Q477 574 518 563T588 528L550 419Q538 427 510 438T456 450Q414 450 390 426T365 357Q365 311 389 287T456 262Q482 262 510 273T550 293L588 184Q558 161 518 150T429 138Z" horiz-adv-x="823" unicode="&#xa9;"/><glyph d="M113 403Q82 403 59 417T23 455 10 502Q10 543 45 565T168 588H208V525H185Q166 525 157 522T144 515 140 507Q140 502 146 499T163 495Q176 495 184 501T193 522V596Q193 604 185 608T155 612Q133 612 109 607T61 592L36 693Q63 704 98 710T174 717Q256 717 294 681T333 570V408H196V473L197 462Q187 432 165 418T113 403Z" horiz-adv-x="346" unicode="&#xaa;"/><glyph d="M157 84 19 267 156 452H304L172 268 303 84H157ZM398 84 260 267 397 452H545L413 268 544 84H398Z" unicode="&#xab;"/><glyph d="M546 451V130H421V329H54V451H546Z" horiz-adv-x="600" unicode="&#xac;"/><glyph d="M64 201V341H388V201H64Z" horiz-adv-x="450" unicode="&#xad;"/><glyph d="M412-5Q335-5 270 22T155 99 79 215 51 357Q51 434 78 499T155 613 269 689 412 717Q489 717 554 690T669 614 745 500 773 357Q773 281 746 215T669 100 555 23 412-5ZM412 65Q475 65 527 87T618 148 678 241 699 357Q699 419 678 472T619 564 528 625 412 647Q349 647 297 625T205 564 145 472 124 357Q124 294 145 241T205 149 296 87 412 65ZM226 143V571H440Q523 571 565 532T608 431Q608 373 568 333T450 292L504 300Q527 300 551 288T589 248L639 143H462L399 281Q399 283 398 286T395 289H384V143H226ZM382 396H419Q439 396 449 401T459 423Q459 441 449 447T419 453H382V396Z" horiz-adv-x="823" unicode="&#xae;"/><glyph d="M-9 610V718H312V610H-9Z" horiz-adv-x="300" unicode="&#xaf;"/><glyph d="M186 408Q142 408 106 428T49 484 28 563Q28 607 49 642T106 697 186 717Q231 717 267 697T323 642 344 563Q344 519 324 484T267 429 186 408ZM186 495Q213 495 232 514T252 563Q252 593 233 611T186 630Q159 630 140 612T121 563Q121 533 140 514T186 495Z" horiz-adv-x="373" unicode="&#xb0;"/><glyph d="M546 406V284H54V406H546ZM239 537H361V152H239V537ZM546 121V0H54V121H546Z" horiz-adv-x="600" unicode="&#xb1;"/><glyph d="M39 285V397L168 530Q179 543 187 555T195 579Q195 589 187 595T157 602Q131 602 102 594T46 571L26 682Q56 698 101 707T187 716Q259 716 304 682T350 589Q350 555 334 524T265 447L184 380 175 404H357V285H39Z" horiz-adv-x="380" unicode="&#xb2;"/><glyph d="M183 280Q141 280 96 288T20 313L39 424Q67 410 98 402T168 394Q199 394 209 401T220 418Q220 429 210 435T177 442H99V558H165Q189 558 198 562T207 580Q207 589 198 595T165 602Q137 602 105 594T46 571L26 682Q56 698 100 707T178 716Q264 716 307 680T350 594Q350 563 332 538T277 503L280 507Q318 497 341 470T364 403Q364 372 345 344T285 298 183 280Z" horiz-adv-x="380" unicode="&#xb3;"/><glyph d="M206 562H97L195 770H367L206 562Z" horiz-adv-x="300" unicode="&#xb4;"/><glyph d="M565 508V0H388V98L402 93Q379 44 339 18T243-8Q232-8 224-9T199-13L232 33V-216H51V508H232V206Q232 168 248 150T297 131Q335 131 358 158T382 230V508H565Z" horiz-adv-x="619" unicode="&#xb5;"/><glyph d="M593 712V-182H478V609H375V-182H259V250Q190 250 138 279T56 360 26 482Q26 551 55 603T138 683 263 712H593Z" horiz-adv-x="658" unicode="&#xb6;"/><glyph d="M43 365H232V179H43V365Z" horiz-adv-x="276" unicode="&#xb7;"/><glyph d="M131-200Q110-200 83-196T34-183L45-118Q71-125 90-128T125-132Q142-132 155-128T168-110Q168-93 136-93 128-93 119-94T104-98L84-76 97 20H189L177-57 134-48Q144-44 160-42T188-40Q230-40 252-59T275-110Q275-149 239-174T131-200Z" horiz-adv-x="300" unicode="&#xb8;"/><glyph d="M141 360V569L204 584 63 513V647L188 712H295V360H141ZM58 285V404H378V285H58Z" horiz-adv-x="380" unicode="&#xb9;"/><glyph d="M196 403Q131 403 91 425T32 484 13 561Q13 600 31 636T90 694 196 717Q260 717 300 695T359 636 378 561Q378 521 360 485T301 426 196 403ZM196 516Q213 516 224 528T235 561Q235 585 224 594T196 603Q179 603 168 594T157 561Q157 540 168 528T196 516Z" horiz-adv-x="391" unicode="&#xba;"/><glyph d="M168 84H21L153 268 20 452H169L305 267 168 84ZM409 84H262L394 268 261 452H410L546 267 409 84Z" unicode="&#xbb;"/><glyph d="M141 360V569L204 584 63 513V647L188 712H295V360H141ZM58 285V404H378V285H58ZM337-32 223 34 636 744 750 678 337-32ZM782 0V267L802 275 697 140 691 165H974V56H596V161L796 427H915V0H782Z" horiz-adv-x="973" unicode="&#xbc;"/><glyph d="M141 360V569L204 584 63 513V647L188 712H295V360H141ZM58 285V404H378V285H58ZM337-32 223 34 636 744 750 678 337-32ZM632 0V112L761 245Q772 258 780 270T788 294Q788 304 780 310T750 317Q724 317 695 309T639 286L619 397Q649 413 694 422T780 431Q852 431 897 397T943 304Q943 270 927 239T858 162L777 95 768 119H950V0H632Z" horiz-adv-x="973" unicode="&#xbd;"/><glyph d="M183 280Q141 280 96 288T20 313L39 424Q67 410 98 402T168 394Q199 394 209 401T220 418Q220 429 210 435T177 442H99V558H165Q189 558 198 562T207 580Q207 589 198 595T165 602Q137 602 105 594T46 571L26 682Q56 698 100 707T178 716Q264 716 307 680T350 594Q350 563 332 538T277 503L280 507Q318 497 341 470T364 403Q364 372 345 344T285 298 183 280ZM337-32 223 34 636 744 750 678 337-32ZM782 0V267L802 275 697 140 691 165H974V56H596V161L796 427H915V0H782Z" horiz-adv-x="973" unicode="&#xbe;"/><glyph d="M235-190Q175-190 122-170T37-111 4-13Q4 24 21 51T63 100 115 139 162 175 187 216L194 256H300V194Q300 158 289 134T261 93 228 63 200 37 188 5Q188-16 202-30T251-45Q283-45 320-35T394 0V-147Q358-170 318-180T235-190ZM150 312V497H338V312H150Z" horiz-adv-x="484" unicode="&#xbf;"/><glyph d="M165 0H-23L310 712H458L792 0H607L366 561H407L165 0ZM131 147 204 288H553L625 147H131ZM329 773 172 931H334L438 773H329Z" horiz-adv-x="769" unicode="&#xc0;"/><glyph d="M165 0H-23L310 712H458L792 0H607L366 561H407L165 0ZM131 147 204 288H553L625 147H131ZM438 773H329L433 931H595L438 773Z" horiz-adv-x="769" unicode="&#xc1;"/><glyph d="M165 0H-23L310 712H458L792 0H607L366 561H407L165 0ZM131 147 204 288H553L625 147H131ZM326 773H195L334 931H433L572 773H441L384 851 326 773Z" horiz-adv-x="769" unicode="&#xc2;"/><glyph d="M165 0H-23L310 712H458L792 0H607L366 561H407L165 0ZM131 147 204 288H553L625 147H131ZM203 774Q203 859 238 896T320 934Q345 934 367 922T410 897 450 884Q466 884 477 895T492 931H564Q564 846 529 809T447 771Q422 771 400 783T357 808 317 821Q301 821 290 810T275 774H203Z" horiz-adv-x="769" unicode="&#xc3;"/><glyph d="M165 0H-23L310 712H458L792 0H607L366 561H407L165 0ZM131 147 204 288H553L625 147H131ZM404 928H564V777H404V928ZM203 928H363V777H203V928Z" horiz-adv-x="769" unicode="&#xc4;"/><glyph d="M385 676Q337 676 304 708T271 788Q271 835 304 867T385 899Q432 899 465 867T499 788Q499 740 466 708T385 676ZM385 743Q403 743 415 756T427 788Q427 806 415 818T385 831Q367 831 355 819T343 788Q343 770 355 757T385 743ZM165 0H-23L310 712H458L792 0H607L366 561H407L165 0ZM131 147 204 288H553L625 147H131Z" horiz-adv-x="769" unicode="&#xc5;"/><glyph d="M-43 0 411 712H982V568H479L512 592 160 0H-43ZM135 147 208 288H554L596 147H135ZM545 0 507 628H675L706 144H982V0H545ZM575 290V434H961V290H575Z" horiz-adv-x="1014" unicode="&#xc6;"/><glyph d="M410-9Q298-9 216 36T90 164 45 357Q45 466 89 548T216 675 410 721Q480 721 545 700T651 643L594 510Q548 543 504 558T414 573Q329 573 283 519T236 357Q236 249 282 194T414 139Q460 139 504 154T594 202L651 69Q611 33 546 12T410-9ZM382-200Q361-200 334-196T285-183L296-118Q322-125 341-128T376-132Q393-132 406-128T419-110Q419-93 387-93 379-93 370-94T355-98L335-76 348 20H440L428-57 385-48Q395-44 411-42T439-40Q481-40 503-59T526-110Q526-149 490-174T382-200Z" horiz-adv-x="685" unicode="&#xc7;"/><glyph d="M64 0V712H572V568H247V434H551V290H247V144H572V0H64ZM281 773 124 931H286L390 773H281Z" horiz-adv-x="604" unicode="&#xc8;"/><glyph d="M64 0V712H572V568H247V434H551V290H247V144H572V0H64ZM390 773H281L385 931H547L390 773Z" horiz-adv-x="604" unicode="&#xc9;"/><glyph d="M64 0V712H572V568H247V434H551V290H247V144H572V0H64ZM278 773H147L286 931H385L524 773H393L336 851 278 773Z" horiz-adv-x="604" unicode="&#xca;"/><glyph d="M64 0V712H572V568H247V434H551V290H247V144H572V0H64ZM356 928H516V777H356V928ZM155 928H315V777H155V928Z" horiz-adv-x="604" unicode="&#xcb;"/><glyph d="M64 0V712H252V0H64ZM102 773-55 931H107L211 773H102Z" horiz-adv-x="316" unicode="&#xcc;"/><glyph d="M64 0V712H252V0H64ZM211 773H102L206 931H368L211 773Z" horiz-adv-x="316" unicode="&#xcd;"/><glyph d="M64 0V712H252V0H64ZM99 773H-32L107 931H206L345 773H214L157 851 99 773Z" horiz-adv-x="316" unicode="&#xce;"/><glyph d="M64 0V712H252V0H64ZM177 928H337V777H177V928ZM-24 928H136V777H-24V928Z" horiz-adv-x="316" unicode="&#xcf;"/><glyph d="M17 289V429H473V289H17ZM101 0V712H393Q511 712 596 670T726 548 772 357Q772 245 727 165T597 43 393 0H101ZM289 150H379Q483 150 534 201T585 357Q585 562 379 562H289V150Z" horiz-adv-x="818" unicode="&#xd0;"/><glyph d="M64 0V712H201L555 271 524 247V712H701V0H562L211 439 239 465V0H64ZM201 774Q201 859 236 896T318 934Q343 934 365 922T408 897 448 884Q464 884 475 895T490 931H562Q562 846 527 809T445 771Q420 771 398 783T355 808 315 821Q299 821 288 810T273 774H201Z" horiz-adv-x="766" unicode="&#xd1;"/><glyph d="M403-9Q293-9 213 36T89 163 45 357Q45 468 89 550T213 676 403 721Q513 721 592 677T715 550 759 357Q759 245 716 163T593 36 403-9ZM403 134Q481 134 527 190T574 357Q574 467 528 522T403 578Q325 578 279 523T233 357Q233 245 279 190T403 134ZM347 773 190 931H352L456 773H347Z" horiz-adv-x="805" unicode="&#xd2;"/><glyph d="M403-9Q293-9 213 36T89 163 45 357Q45 468 89 550T213 676 403 721Q513 721 592 677T715 550 759 357Q759 245 716 163T593 36 403-9ZM403 134Q481 134 527 190T574 357Q574 467 528 522T403 578Q325 578 279 523T233 357Q233 245 279 190T403 134ZM456 773H347L451 931H613L456 773Z" horiz-adv-x="805" unicode="&#xd3;"/><glyph d="M403-9Q293-9 213 36T89 163 45 357Q45 468 89 550T213 676 403 721Q513 721 592 677T715 550 759 357Q759 245 716 163T593 36 403-9ZM403 134Q481 134 527 190T574 357Q574 467 528 522T403 578Q325 578 279 523T233 357Q233 245 279 190T403 134ZM344 773H213L352 931H451L590 773H459L402 851 344 773Z" horiz-adv-x="805" unicode="&#xd4;"/><glyph d="M403-9Q293-9 213 36T89 163 45 357Q45 468 89 550T213 676 403 721Q513 721 592 677T715 550 759 357Q759 245 716 163T593 36 403-9ZM403 134Q481 134 527 190T574 357Q574 467 528 522T403 578Q325 578 279 523T233 357Q233 245 279 190T403 134ZM221 774Q221 859 256 896T338 934Q363 934 385 922T428 897 468 884Q484 884 495 895T510 931H582Q582 846 547 809T465 771Q440 771 418 783T375 808 335 821Q319 821 308 810T293 774H221Z" horiz-adv-x="805" unicode="&#xd5;"/><glyph d="M403-9Q293-9 213 36T89 163 45 357Q45 468 89 550T213 676 403 721Q513 721 592 677T715 550 759 357Q759 245 716 163T593 36 403-9ZM403 134Q481 134 527 190T574 357Q574 467 528 522T403 578Q325 578 279 523T233 357Q233 245 279 190T403 134ZM422 928H582V777H422V928ZM221 928H381V777H221V928Z" horiz-adv-x="805" unicode="&#xd6;"/><glyph d="M451 527 536 441 149 55 64 140 451 527ZM149 527 536 140 451 55 64 441 149 527Z" horiz-adv-x="600" unicode="&#xd7;"/><glyph d="M403-9Q293-9 213 36T89 163 45 357Q45 468 89 550T213 676 403 721Q513 721 592 677T715 550 759 357Q759 245 716 163T593 36 403-9ZM230-77 112-6 575 789 693 718 230-77ZM403 134Q481 134 527 190T574 357Q574 467 528 522T403 578Q325 578 279 523T233 357Q233 245 279 190T403 134Z" horiz-adv-x="805" unicode="&#xd8;"/><glyph d="M377-9Q221-9 141 69T61 300V712H244V293Q244 217 278 176T377 134Q440 134 474 175T508 293V712H693V300Q693 150 612 71T377-9ZM322 773 165 931H327L431 773H322Z" horiz-adv-x="752" unicode="&#xd9;"/><glyph d="M377-9Q221-9 141 69T61 300V712H244V293Q244 217 278 176T377 134Q440 134 474 175T508 293V712H693V300Q693 150 612 71T377-9ZM431 773H322L426 931H588L431 773Z" horiz-adv-x="752" unicode="&#xda;"/><glyph d="M377-9Q221-9 141 69T61 300V712H244V293Q244 217 278 176T377 134Q440 134 474 175T508 293V712H693V300Q693 150 612 71T377-9ZM319 773H188L327 931H426L565 773H434L377 851 319 773Z" horiz-adv-x="752" unicode="&#xdb;"/><glyph d="M377-9Q221-9 141 69T61 300V712H244V293Q244 217 278 176T377 134Q440 134 474 175T508 293V712H693V300Q693 150 612 71T377-9ZM397 928H557V777H397V928ZM196 928H356V777H196V928Z" horiz-adv-x="752" unicode="&#xdc;"/><glyph d="M234 0V320L273 216-65 712H147L351 390H303L510 712H724L385 216 423 320V0H234ZM382 773H273L377 931H539L382 773Z" horiz-adv-x="657" unicode="&#xdd;"/><glyph d="M226 149V291H376Q433 291 458 307T484 362Q484 399 459 415T376 432H226V575H408Q527 575 593 518T659 362Q659 262 592 206T408 149H226ZM64 0V712H248V0H64Z" horiz-adv-x="686" unicode="&#xde;"/><glyph d="M54 0V448Q54 596 132 671T359 746Q479 746 549 695T619 548Q619 511 605 477T552 412 436 358V390Q528 371 588 343T677 272 706 168Q706 115 678 76T600 14 481-8Q417-8 363 7T272 53L319 181Q355 150 399 136T487 122Q518 123 530 140T542 176Q542 201 521 222T451 262 323 300V431Q372 445 400 461T439 496 450 540Q450 580 426 599T358 618Q300 618 268 583T235 475V0H54Z" horiz-adv-x="723" unicode="&#xdf;"/><glyph d="M255-8Q190-8 139 24T60 115 31 253Q31 333 60 393T139 488 255 522Q313 522 359 494T423 419L411 412V508H589V0H411V93H423Q406 46 360 19T255-8ZM311 127Q358 127 384 160T411 255Q411 319 385 352T311 385Q264 385 237 351T210 253Q210 192 236 160T311 127ZM266 573 105 781H277L375 573H266Z" horiz-adv-x="643" unicode="&#xe0;"/><glyph d="M255-8Q190-8 139 24T60 115 31 253Q31 333 60 393T139 488 255 522Q313 522 359 494T423 419L411 412V508H589V0H411V93H423Q406 46 360 19T255-8ZM311 127Q358 127 384 160T411 255Q411 319 385 352T311 385Q264 385 237 351T210 253Q210 192 236 160T311 127ZM375 573H266L364 781H536L375 573Z" horiz-adv-x="643" unicode="&#xe1;"/><glyph d="M255-8Q190-8 139 24T60 115 31 253Q31 333 60 393T139 488 255 522Q313 522 359 494T423 419L411 412V508H589V0H411V93H423Q406 46 360 19T255-8ZM311 127Q358 127 384 160T411 255Q411 319 385 352T311 385Q264 385 237 351T210 253Q210 192 236 160T311 127ZM268 573H132L268 781H373L509 573H373L321 679 268 573Z" horiz-adv-x="643" unicode="&#xe2;"/><glyph d="M255-8Q190-8 139 24T60 115 31 253Q31 333 60 393T139 488 255 522Q313 522 359 494T423 419L411 412V508H589V0H411V93H423Q406 46 360 19T255-8ZM311 127Q358 127 384 160T411 255Q411 319 385 352T311 385Q264 385 237 351T210 253Q210 192 236 160T311 127ZM140 599Q140 684 175 721T257 759Q282 759 304 747T347 722 387 709Q403 709 414 720T429 756H501Q501 671 466 634T384 596Q359 596 337 608T294 633 254 646Q238 646 227 635T212 599H140Z" horiz-adv-x="643" unicode="&#xe3;"/><glyph d="M255-8Q190-8 139 24T60 115 31 253Q31 333 60 393T139 488 255 522Q313 522 359 494T423 419L411 412V508H589V0H411V93H423Q406 46 360 19T255-8ZM311 127Q358 127 384 160T411 255Q411 319 385 352T311 385Q264 385 237 351T210 253Q210 192 236 160T311 127ZM341 751H501V599H341V751ZM140 751H300V599H140V751Z" horiz-adv-x="643" unicode="&#xe4;"/><glyph d="M255-8Q190-8 139 24T60 115 31 253Q31 333 60 393T139 488 255 522Q313 522 359 494T423 419L411 412V508H589V0H411V93H423Q406 46 360 19T255-8ZM311 127Q358 127 384 160T411 255Q411 319 385 352T311 385Q264 385 237 351T210 253Q210 192 236 160T311 127ZM321 566Q273 566 240 598T206 678Q206 725 239 757T321 790Q352 790 378 775T419 735 435 678Q435 630 402 598T321 566ZM321 633Q339 633 350 646T362 678Q362 696 351 708T321 721Q302 721 291 709T279 678Q279 659 290 646T321 633Z" horiz-adv-x="643" unicode="&#xe5;"/><glyph d="M621-8Q499-8 433 60T367 256Q368 336 398 395T482 488 608 522Q673 522 723 489T801 396 829 260V236H506L507 320H720L677 291Q677 343 658 370T603 398Q560 398 538 366T515 250Q515 196 541 161T634 125Q668 125 705 137T775 172L820 52Q783 23 729 8T621-8ZM241-8Q180-8 133 13T59 72 32 162Q32 217 60 252T148 303 308 320H350V238H319Q279 238 254 230T218 206 206 168Q206 143 222 129T266 114Q293 114 310 126T336 160 344 208V319Q344 356 328 372T272 388Q232 388 186 375T98 337L53 458Q82 476 122 490T204 513 284 522Q394 522 445 467T497 293V215L438 203Q440 101 385 47T241-8Z" horiz-adv-x="860" unicode="&#xe6;"/><glyph d="M306-8Q220-8 158 23T64 114 31 253Q31 334 66 394T165 488 314 522Q370 522 424 506T510 461L464 336Q437 358 401 371T332 384Q278 384 247 353T216 257Q216 191 246 160T333 128Q365 128 401 140T464 176L510 53Q476 24 422 8T306-8ZM278-200Q257-200 230-196T181-183L192-118Q218-125 237-128T272-132Q289-132 302-128T315-110Q315-93 283-93 275-93 266-94T251-98L231-76 244 20H336L324-57 281-48Q291-44 307-42T335-40Q377-40 399-59T422-110Q422-149 386-174T278-200Z" horiz-adv-x="515" unicode="&#xe7;"/><glyph d="M514 52Q476 23 422 8T314-8Q226-8 163 24T65 115 31 256Q31 334 63 394T153 488 285 522Q358 522 411 490T494 399 523 260V236H191L193 320H414L370 291Q370 345 350 371T290 398Q247 398 225 367T202 271Q202 192 231 159T323 125Q361 125 399 137T468 172L514 52ZM230 573 69 781H241L339 573H230Z" horiz-adv-x="553" unicode="&#xe8;"/><glyph d="M514 52Q476 23 422 8T314-8Q226-8 163 24T65 115 31 256Q31 334 63 394T153 488 285 522Q358 522 411 490T494 399 523 260V236H191L193 320H414L370 291Q370 345 350 371T290 398Q247 398 225 367T202 271Q202 192 231 159T323 125Q361 125 399 137T468 172L514 52ZM339 573H230L328 781H500L339 573Z" horiz-adv-x="553" unicode="&#xe9;"/><glyph d="M514 52Q476 23 422 8T314-8Q226-8 163 24T65 115 31 256Q31 334 63 394T153 488 285 522Q358 522 411 490T494 399 523 260V236H191L193 320H414L370 291Q370 345 350 371T290 398Q247 398 225 367T202 271Q202 192 231 159T323 125Q361 125 399 137T468 172L514 52ZM232 573H96L232 781H337L473 573H337L285 679 232 573Z" horiz-adv-x="553" unicode="&#xea;"/><glyph d="M514 52Q476 23 422 8T314-8Q226-8 163 24T65 115 31 256Q31 334 63 394T153 488 285 522Q358 522 411 490T494 399 523 260V236H191L193 320H414L370 291Q370 345 350 371T290 398Q247 398 225 367T202 271Q202 192 231 159T323 125Q361 125 399 137T468 172L514 52ZM305 751H465V599H305V751ZM104 751H264V599H104V751Z" horiz-adv-x="553" unicode="&#xeb;"/><glyph d="M54 0V508H235V0H54ZM345 573 184 781H356L454 573H345Z" horiz-adv-x="289" unicode="&#xec;"/><glyph d="M54 0V508H235V0H54ZM454 573H345L443 781H615L454 573Z" horiz-adv-x="289" unicode="&#xed;"/><glyph d="M54 0V508H235V0H54ZM347 573H211L347 781H452L588 573H452L400 679 347 573Z" horiz-adv-x="289" unicode="&#xee;"/><glyph d="M54 0V508H235V0H54ZM420 751H580V599H420V751ZM219 751H379V599H219V751Z" horiz-adv-x="289" unicode="&#xef;"/><glyph d="M302-8Q222-8 161 22T66 107 31 232Q31 302 63 355T153 439 284 470Q359 470 405 438T472 339L427 344Q427 425 388 486T286 583 149 626L188 749Q288 739 364 697T492 592 570 456 596 310Q596 159 519 76T302-8ZM310 127Q358 127 383 154T408 232Q408 285 384 312T310 339Q260 339 235 312T210 232Q210 179 235 153T310 127ZM171 481 147 570 568 675 589 586 171 481Z" horiz-adv-x="627" unicode="&#xf0;"/><glyph d="M54 0V362Q54 398 53 435T46 508H216L228 412 216 417Q244 467 289 494T394 522Q573 522 573 303V0H392V295Q392 342 376 362T326 383Q285 383 260 356T235 283V0H54ZM133 599Q133 684 168 721T250 759Q275 759 297 747T340 722 380 709Q396 709 407 720T422 756H494Q494 671 459 634T377 596Q352 596 330 608T287 633 247 646Q231 646 220 635T205 599H133Z" horiz-adv-x="624" unicode="&#xf1;"/><glyph d="M310-8Q224-8 162 24T65 115 31 257Q31 338 65 397T161 489 310 522Q394 522 456 490T553 398 587 257Q587 175 553 116T457 24 310-8ZM310 127Q357 127 382 158T408 257Q408 324 383 355T310 386Q261 386 236 355T210 257Q210 189 235 158T310 127ZM255 573 94 781H266L364 573H255Z" horiz-adv-x="618" unicode="&#xf2;"/><glyph d="M310-8Q224-8 162 24T65 115 31 257Q31 338 65 397T161 489 310 522Q394 522 456 490T553 398 587 257Q587 175 553 116T457 24 310-8ZM310 127Q357 127 382 158T408 257Q408 324 383 355T310 386Q261 386 236 355T210 257Q210 189 235 158T310 127ZM364 573H255L353 781H525L364 573Z" horiz-adv-x="618" unicode="&#xf3;"/><glyph d="M310-8Q224-8 162 24T65 115 31 257Q31 338 65 397T161 489 310 522Q394 522 456 490T553 398 587 257Q587 175 553 116T457 24 310-8ZM310 127Q357 127 382 158T408 257Q408 324 383 355T310 386Q261 386 236 355T210 257Q210 189 235 158T310 127ZM257 573H121L257 781H362L498 573H362L310 679 257 573Z" horiz-adv-x="618" unicode="&#xf4;"/><glyph d="M310-8Q224-8 162 24T65 115 31 257Q31 338 65 397T161 489 310 522Q394 522 456 490T553 398 587 257Q587 175 553 116T457 24 310-8ZM310 127Q357 127 382 158T408 257Q408 324 383 355T310 386Q261 386 236 355T210 257Q210 189 235 158T310 127ZM129 599Q129 684 164 721T246 759Q271 759 293 747T336 722 376 709Q392 709 403 720T418 756H490Q490 671 455 634T373 596Q348 596 326 608T283 633 243 646Q227 646 216 635T201 599H129Z" horiz-adv-x="618" unicode="&#xf5;"/><glyph d="M310-8Q224-8 162 24T65 115 31 257Q31 338 65 397T161 489 310 522Q394 522 456 490T553 398 587 257Q587 175 553 116T457 24 310-8ZM310 127Q357 127 382 158T408 257Q408 324 383 355T310 386Q261 386 236 355T210 257Q210 189 235 158T310 127ZM330 751H490V599H330V751ZM129 751H289V599H129V751Z" horiz-adv-x="618" unicode="&#xf6;"/><glyph d="M229 414V544H359V414H229ZM229 29V160H359V29H229ZM546 351V230H54V351H546Z" horiz-adv-x="600" unicode="&#xf7;"/><glyph d="M310-8Q224-8 162 24T65 115 31 257Q31 338 65 397T161 489 310 522Q394 522 456 490T553 398 587 257Q587 175 553 116T457 24 310-8ZM173-71 92-23 445 583 527 535 173-71ZM310 126Q360 126 386 157T412 257Q412 325 386 356T310 388Q258 388 232 357T206 257Q206 188 232 157T310 126Z" horiz-adv-x="618" unicode="&#xf8;"/><glyph d="M243-8Q146-8 99 46T51 211V508H232V206Q232 168 248 150T297 131Q335 131 358 158T382 230V508H565V0H388V98L402 93Q379 44 339 18T243-8ZM254 573 93 781H265L363 573H254Z" horiz-adv-x="619" unicode="&#xf9;"/><glyph d="M243-8Q146-8 99 46T51 211V508H232V206Q232 168 248 150T297 131Q335 131 358 158T382 230V508H565V0H388V98L402 93Q379 44 339 18T243-8ZM363 573H254L352 781H524L363 573Z" horiz-adv-x="619" unicode="&#xfa;"/><glyph d="M243-8Q146-8 99 46T51 211V508H232V206Q232 168 248 150T297 131Q335 131 358 158T382 230V508H565V0H388V98L402 93Q379 44 339 18T243-8ZM256 573H120L256 781H361L497 573H361L309 679 256 573Z" horiz-adv-x="619" unicode="&#xfb;"/><glyph d="M243-8Q146-8 99 46T51 211V508H232V206Q232 168 248 150T297 131Q335 131 358 158T382 230V508H565V0H388V98L402 93Q379 44 339 18T243-8ZM329 751H489V599H329V751ZM128 751H288V599H128V751Z" horiz-adv-x="619" unicode="&#xfc;"/><glyph d="M59-228 17-90Q64-81 94-68T144-37 175 7L217 99 266 173 401 508H579L346-18Q314-91 271-134T175-199 59-228ZM222-43-19 508H169L299 173 222-43ZM333 573H224L322 781H494L333 573Z" horiz-adv-x="559" unicode="&#xfd;"/><glyph d="M54-216V736H235V398L222 419Q238 465 284 493T389 522Q455 522 505 488T585 393 614 253Q614 175 585 116T506 25 389-8Q330-8 284 19T222 93L235 116V-216H54ZM334 127Q382 127 407 159T433 253Q433 317 407 351T334 385Q285 385 259 352T233 255Q233 193 259 160T334 127Z" horiz-adv-x="645" unicode="&#xfe;"/><glyph d="M59-228 17-90Q64-81 94-68T144-37 175 7L217 99 266 173 401 508H579L346-18Q314-91 271-134T175-199 59-228ZM222-43-19 508H169L299 173 222-43ZM299 751H459V599H299V751ZM98 751H258V599H98V751Z" horiz-adv-x="559" unicode="&#xff;"/><glyph d="M0 220V323H505V220H0Z" horiz-adv-x="505" unicode="&#x2013;"/><glyph d="M0 220V323H1010V220H0Z" horiz-adv-x="1010" unicode="&#x2014;"/><glyph d="M146 721 214 667Q176 628 158 594T140 519L101 564H232V378H43V494Q43 558 66 610T146 721Z" horiz-adv-x="276" unicode="&#x2018;"/><glyph d="M128 369 61 423Q99 462 116 496T134 571L175 526H43V712H232V596Q232 531 209 479T128 369Z" horiz-adv-x="276" unicode="&#x2019;"/><glyph d="M128-157 61-103Q99-65 116-31T134 44L175 0H43V186H232V69Q232 5 209-48T128-157Z" horiz-adv-x="276" unicode="&#x201a;"/><glyph d="M146 721 214 667Q176 628 158 594T140 519L101 564H232V378H43V494Q43 558 66 610T146 721ZM372 721 440 667Q402 628 384 594T366 519L327 564H458V378H269V494Q269 558 292 610T372 721Z" horiz-adv-x="502" unicode="&#x201c;"/><glyph d="M128 369 61 423Q99 462 116 496T134 571L175 526H43V712H232V596Q232 531 209 479T128 369ZM354 369 287 423Q325 462 342 496T360 571L401 526H269V712H458V596Q458 531 435 479T354 369Z" horiz-adv-x="502" unicode="&#x201d;"/><glyph d="M128-157 61-103Q99-65 116-31T134 44L175 0H43V186H232V69Q232 5 209-48T128-157ZM354-157 287-103Q325-65 342-31T360 44L401 0H269V186H458V69Q458 5 435-48T354-157Z" horiz-adv-x="502" unicode="&#x201e;"/><glyph d="M265 89Q216 89 174 112T107 177 82 268Q82 314 105 355T170 421 265 447Q314 447 355 424T421 360 447 268Q447 219 423 178T357 113 265 89Z" horiz-adv-x="529" unicode="&#x2022;"/><glyph d="M157 84 19 267 156 452H304L172 268 303 84H157Z" horiz-adv-x="324" unicode="&#x2039;"/><glyph d="M168 84H21L153 268 20 452H169L305 267 168 84Z" horiz-adv-x="324" unicode="&#x203a;"/></font>
</defs>
</svg>
