<svg height="60" viewBox="0 0 59 60" width="59" xmlns="http://www.w3.org/2000/svg"><path d="m44.8205683 40.9406039v-25.761347l12.1626219 25.761347zm-5.7350801 15.9384274 5.5088126-14.4800364h11.5533031zm-2.1931915 1.6613905h-21.9443868l27.7554833-15.2742273zm-12.0681953-25.6705314 17.6969712 8.8310712-28.8446556 15.8755095zm-11.7106808 9.1521902 9.4266259-7.6397847-9.6445791 21.3731154zm-10.2449897-9.3949586 19.5397747-.0172134-10.0092202 8.1116695zm8.5601578-27.6554153.2256736 19.2066005-9.3517972 5.9546515zm.9703967 20.4625856 9.4586953 5.7166317-18.4648556.0172134zm10.5864696 4.695105-9.8714405-5.96771-.2274553-19.3063195zm20.3765489-16.4227771v26.7852479l-17.6684651-8.8168256zm-.6021923-1.4667009-18.0271674 18.3304974-11.3537601-28.4151795zm1.8172667-.9265562-32.9049996-11.3133631-11.6720787 32.0881643 11.6536685 9.9155158-.2939697 17.9963199h26.3491802l21.291121-18.1251237z" fill="#082c4c"/></svg>